<?xml version="1.0" encoding="iso-8859-1"?>
<!-- Generator: Adobe Illustrator 16.0.0, SVG Export Plug-In . SVG Version: 6.00 Build 0)  -->
<!DOCTYPE svg PUBLIC "-//W3C//DTD SVG 1.1//EN" "http://www.w3.org/Graphics/SVG/1.1/DTD/svg11.dtd">
<svg version="1.1" id="Calque_1" xmlns="http://www.w3.org/2000/svg" xmlns:xlink="http://www.w3.org/1999/xlink" x="0px" y="0px"
	 width="24px" height="24px" viewBox="0 0 24 24" style="enable-background:new 0 0 24 24;" xml:space="preserve">
<path style="fill-rule:evenodd;clip-rule:evenodd;fill:#1E94D2;" d="M12,24C5.373,24,0,18.627,0,12S5.373,0,12,0s12,5.373,12,12
	S18.627,24,12,24z M12,2C6.486,2,2,6.486,2,12s4.486,10,10,10c5.514,0,10-4.486,10-10S17.514,2,12,2z M10,14.89h8v2h-8V14.89z
	 M10,10.89h8v2h-8V10.89z M10,6.89h8v2h-8V6.89z M7,16.89c-0.552,0-1-0.448-1-1s0.448-1,1-1s1,0.448,1,1S7.552,16.89,7,16.89z
	 M7,12.89c-0.552,0-1-0.448-1-1s0.448-1,1-1s1,0.448,1,1S7.552,12.89,7,12.89z M7,8.89c-0.552,0-1-0.448-1-1s0.448-1,1-1
	s1,0.448,1,1S7.552,8.89,7,8.89z"/>
</svg>
