<svg id="Calque_1" data-name="Calque 1" xmlns="http://www.w3.org/2000/svg" viewBox="0 0 32 32"><defs><style>.cls-1{fill:#0095db;}</style></defs><title>atelier-devoir_32x32</title><path class="cls-1" d="M24.79,15.53H19.16a6.73,6.73,0,0,1-.41,1.7h6a.43.43,0,0,0,.31-.12.41.41,0,0,0,.12-.31V16a.41.41,0,0,0-.12-.3A.43.43,0,0,0,24.79,15.53Zm.31,5a.41.41,0,0,0,.12-.3v-.85a.41.41,0,0,0-.12-.3.43.43,0,0,0-.31-.12H21.31a6.86,6.86,0,0,1,.8,1.08c.12.2.22.41.31.61h2.36A.43.43,0,0,0,25.1,20.5ZM30.15,8a3.08,3.08,0,0,0-.65-1L25.28,2.85A3.65,3.65,0,0,0,23.05,2H10.91a1.27,1.27,0,0,0-.92.37,1.21,1.21,0,0,0-.38.9V8a7.24,7.24,0,0,1,1.73-.35v-4H21.75V9.16a1.21,1.21,0,0,0,.38.9,1.27,1.27,0,0,0,.92.37h5.64V24h-5.3c.05.35.09.69.11,1s0,.46,0,.69h5.6a1.27,1.27,0,0,0,.92-.37,1.22,1.22,0,0,0,.38-.9V9.16A3,3,0,0,0,30.15,8Zm-6.67.74v-5A1.5,1.5,0,0,1,24,4L28.28,8.2a1.44,1.44,0,0,1,.3.54Zm1.73,3.82a.41.41,0,0,0-.12-.3.43.43,0,0,0-.31-.12h-6a6.71,6.71,0,0,1,.42,1.7h5.63a.43.43,0,0,0,.31-.12.41.41,0,0,0,.12-.31ZM12,19.79a5.07,5.07,0,0,0,3.68-1.49,5,5,0,0,0,0-7.2A5.07,5.07,0,0,0,12,9.6,5.07,5.07,0,0,0,8.31,11.1a5,5,0,0,0,0,7.2A5.07,5.07,0,0,0,12,19.79Zm9.3,3.93a11.07,11.07,0,0,0-.36-1.44A6.74,6.74,0,0,0,20.35,21a4.69,4.69,0,0,0-.84-1.07,3.56,3.56,0,0,0-1.16-.71,4.16,4.16,0,0,0-1.51-.27,1.67,1.67,0,0,0-.57.29l-1,.64a6.48,6.48,0,0,1-1.46.64,5.89,5.89,0,0,1-3.62,0,6.47,6.47,0,0,1-1.46-.64l-1-.64a1.67,1.67,0,0,0-.57-.29,4.16,4.16,0,0,0-1.51.27,3.56,3.56,0,0,0-1.16.71A4.69,4.69,0,0,0,3.63,21,6.72,6.72,0,0,0,3,22.28a11,11,0,0,0-.36,1.44,13.23,13.23,0,0,0-.19,1.45q0,.67,0,1.37a3.27,3.27,0,0,0,1,2.51A3.7,3.7,0,0,0,6.07,30H17.91A3.7,3.7,0,0,0,20.54,29a3.27,3.27,0,0,0,1-2.51q0-.7,0-1.37A13.25,13.25,0,0,0,21.29,23.72Z"/></svg>