<svg id="Calque_1" data-name="Calque 1" xmlns="http://www.w3.org/2000/svg" viewBox="0 0 32 32"><defs><style>.cls-1{fill:#0095db;}</style></defs><title>livre_32x32</title><path class="cls-1" d="M26,9.83a2.17,2.17,0,0,1-.07.76l-4,13.22a1,1,0,0,1-.47.56,1.49,1.49,0,0,1-.75.21H8.35q-1.61,0-1.93-.94a.61.61,0,0,1,0-.58.59.59,0,0,1,.51-.2H18.58a2.47,2.47,0,0,0,1.72-.46,5.23,5.23,0,0,0,1-2.06L24.93,8.21a1.91,1.91,0,0,0-.24-1.74,1.76,1.76,0,0,0-1.53-.75H13a3.73,3.73,0,0,0-.68.12v0a2.78,2.78,0,0,0-.64-.07.9.9,0,0,0-.48.15,1.55,1.55,0,0,0-.35.31,2.3,2.3,0,0,0-.26.43q-.13.26-.21.48t-.2.47A3,3,0,0,1,9.93,8l-.23.28-.24.31a.75.75,0,0,0-.12.24.87.87,0,0,0,0,.35,1.12,1.12,0,0,1,0,.34A5.08,5.08,0,0,1,9,10.8a5.53,5.53,0,0,1-.57,1.13l-.29.3a1.07,1.07,0,0,0-.29.41s0,.17,0,.38a2,2,0,0,1,0,.43,5.48,5.48,0,0,1-.33,1.21A8.19,8.19,0,0,1,7,15.88a2.2,2.2,0,0,1-.23.31,1.12,1.12,0,0,0-.23.37,1.17,1.17,0,0,0,0,.37,1,1,0,0,1,0,.4,7.29,7.29,0,0,1-.4,1.23,9,9,0,0,1-.6,1.23,3.27,3.27,0,0,1-.22.31,3.3,3.3,0,0,0-.22.31A.83.83,0,0,0,5,20.7.66.66,0,0,0,5,21a.75.75,0,0,1,0,.29q0,.19-.05.5t0,.36a2.43,2.43,0,0,0,0,1.7,3.76,3.76,0,0,0,1.33,1.76,3.28,3.28,0,0,0,2,.72H20.7a2.67,2.67,0,0,0,1.64-.58,2.77,2.77,0,0,0,1-1.44L27,12.13a1.9,1.9,0,0,0-.24-1.73A1.77,1.77,0,0,0,26,9.83ZM12.84,9.57a.6.6,0,0,1,.22-.3.56.56,0,0,1,.34-.13h8.14a.29.29,0,0,1,.27.13.35.35,0,0,1,0,.3l-.28.86a.6.6,0,0,1-.22.3.56.56,0,0,1-.34.13H12.85a.29.29,0,0,1-.27-.13.35.35,0,0,1,0-.3ZM11.73,13a.6.6,0,0,1,.22-.3.56.56,0,0,1,.34-.13h8.14a.29.29,0,0,1,.27.13.35.35,0,0,1,0,.3l-.28.86a.6.6,0,0,1-.22.3.56.56,0,0,1-.34.13H11.74a.29.29,0,0,1-.27-.13.35.35,0,0,1,0-.3Z"/></svg>