<svg id="Calque_1" data-name="Calque 1" xmlns="http://www.w3.org/2000/svg" viewBox="0 0 32 32"><defs><style>.cls-1{fill:#0095db;}</style></defs><title>choix-groupe_32x32</title><path class="cls-1" d="M11.3,16a5.94,5.94,0,0,1-1.07-3.43,6.72,6.72,0,0,1,.07-.88A5.27,5.27,0,0,1,8.53,12,4.6,4.6,0,0,1,7,11.71a8.67,8.67,0,0,1-1.29-.57,2.52,2.52,0,0,0-.58-.28q-1.64,0-1.64,4.73a1.84,1.84,0,0,0,.74,1.59A3,3,0,0,0,6,17.71H7.79A4.55,4.55,0,0,1,11.3,16ZM8.53,10.86a3.25,3.25,0,0,0,2.4-1,3.32,3.32,0,0,0,1-2.42,3.32,3.32,0,0,0-1-2.42,3.25,3.25,0,0,0-2.4-1,3.25,3.25,0,0,0-2.4,1,3.32,3.32,0,0,0-1,2.42,3.32,3.32,0,0,0,1,2.42A3.25,3.25,0,0,0,8.53,10.86ZM25.25,21.69a11.48,11.48,0,0,0-.35-1.45,6.93,6.93,0,0,0-.57-1.31,4.7,4.7,0,0,0-.82-1.08,3.46,3.46,0,0,0-1.13-.72,3.94,3.94,0,0,0-1.48-.27,1.55,1.55,0,0,0-.57.29l-1,.64a5.88,5.88,0,0,1-5,.64A5.78,5.78,0,0,1,13,17.79l-1-.64a1.55,1.55,0,0,0-.57-.29,3.94,3.94,0,0,0-1.48.27,3.46,3.46,0,0,0-1.13.72A4.7,4.7,0,0,0,8,18.93a6.9,6.9,0,0,0-.57,1.31,11.44,11.44,0,0,0-.35,1.45,13.75,13.75,0,0,0-.19,1.46q0,.68,0,1.39a3.36,3.36,0,0,0,1,2.54,3.55,3.55,0,0,0,2.57.93H21.95a3.55,3.55,0,0,0,2.57-.93,3.36,3.36,0,0,0,1-2.54q0-.71,0-1.39A13.81,13.81,0,0,0,25.25,21.69ZM12.56,16.21a5,5,0,0,0,7.19,0,5,5,0,0,0,1.49-3.64,5,5,0,0,0-1.49-3.64,5,5,0,0,0-7.19,0,5,5,0,0,0-1.49,3.64A5,5,0,0,0,12.56,16.21ZM25,4a3.39,3.39,0,0,0-3.47,3.45h1.7A1.78,1.78,0,1,1,25,9.25h-.86v2.6h1.7v-1A3.45,3.45,0,0,0,25,4ZM23.9,15.6h2.17V13.41H23.9Z"/></svg>