<svg id="Calque_1" data-name="Calque 1" xmlns="http://www.w3.org/2000/svg" viewBox="0 0 32 32"><defs><style>.cls-1{fill:#0095db;}</style></defs><title>base-donnees_32x32</title><path class="cls-1" d="M5.86,12.22V14.5q0,.92,1.38,1.71A12.44,12.44,0,0,0,11,17.46a27,27,0,0,0,5.16.46,27,27,0,0,0,5.16-.46,12.44,12.44,0,0,0,3.75-1.25q1.38-.79,1.38-1.71V12.22a11.69,11.69,0,0,1-4.35,1.7,29,29,0,0,1-5.93.58,29,29,0,0,1-5.93-.58,11.68,11.68,0,0,1-4.35-1.7Zm0,10.29v2.28q0,.92,1.38,1.71A12.44,12.44,0,0,0,11,27.75a27,27,0,0,0,5.16.46,27,27,0,0,0,5.16-.46,12.44,12.44,0,0,0,3.75-1.25q1.38-.79,1.38-1.71V22.5a11.68,11.68,0,0,1-4.35,1.7,29,29,0,0,1-5.93.58,29,29,0,0,1-5.93-.58,11.68,11.68,0,0,1-4.35-1.7Zm0-5.14v2.28q0,.92,1.38,1.71A12.44,12.44,0,0,0,11,22.61a27,27,0,0,0,5.16.46,27,27,0,0,0,5.16-.46,12.44,12.44,0,0,0,3.75-1.25q1.38-.79,1.38-1.71V17.36a11.68,11.68,0,0,1-4.35,1.7,29,29,0,0,1-5.93.58,29,29,0,0,1-5.93-.58,11.68,11.68,0,0,1-4.35-1.7ZM7.24,5.92q-1.38.79-1.38,1.71V9.35q0,.92,1.38,1.71A12.44,12.44,0,0,0,11,12.32a27,27,0,0,0,5.16.46,27,27,0,0,0,5.16-.46,12.44,12.44,0,0,0,3.75-1.25q1.38-.79,1.38-1.71V7.64q0-.92-1.38-1.71A12.44,12.44,0,0,0,21.3,4.67a27,27,0,0,0-5.16-.46A27,27,0,0,0,11,4.67,12.44,12.44,0,0,0,7.24,5.92Z"/></svg>