<svg id="Calque_1" data-name="Calque 1" xmlns="http://www.w3.org/2000/svg" viewBox="0 0 32 32"><defs><style>.cls-1{fill:#0095db;}</style></defs><title>etherpad_32x32</title><path class="cls-1" d="M24.74,20.74a.42.42,0,0,0,.12-.31v-.86a.41.41,0,0,0-.43-.43H21.25a4.47,4.47,0,0,1,1.08,1.71h2.1A.42.42,0,0,0,24.74,20.74Z"/><path class="cls-1" d="M15,14h9.43a.41.41,0,0,0,.43-.43v-.86a.41.41,0,0,0-.43-.43H15a.41.41,0,0,0-.43.43v.86A.41.41,0,0,0,15,14Z"/><path class="cls-1" d="M15,17.43h9.43a.41.41,0,0,0,.43-.43v-.86a.41.41,0,0,0-.43-.43H15a.41.41,0,0,0-.43.43V17a.41.41,0,0,0,.43.43Z"/><path class="cls-1" d="M29.73,8.11a3.12,3.12,0,0,0-.64-1L24.91,2.91a3.12,3.12,0,0,0-1-.64A3.09,3.09,0,0,0,22.71,2h-12A1.28,1.28,0,0,0,9.43,3.29V18.51a4.69,4.69,0,0,1,.81.62,4.55,4.55,0,0,1,.91,1.28V3.71H21.43V9.29a1.28,1.28,0,0,0,1.29,1.29h5.57V24.29H23.76c0,.07.1.14.14.21a5.36,5.36,0,0,1,.46,1c0,.14.08.31.12.47h4.22A1.28,1.28,0,0,0,30,24.71V9.29A3.09,3.09,0,0,0,29.73,8.11Zm-6.59.75v-5a1.47,1.47,0,0,1,.55.29l4.19,4.19a1.46,1.46,0,0,1,.29.55Z"/><path class="cls-1" d="M22.75,27.6a6.63,6.63,0,0,0-.09-.72,5.54,5.54,0,0,0-.18-.72,3.37,3.37,0,0,0-.29-.65,2.35,2.35,0,0,0-.42-.54,1.78,1.78,0,0,0-.58-.35,2.08,2.08,0,0,0-.76-.13.83.83,0,0,0-.28.14l-.5.32a3.24,3.24,0,0,1-.73.32,2.94,2.94,0,0,1-1.81,0,3.23,3.23,0,0,1-.73-.32l-.5-.32a.84.84,0,0,0-.28-.14,2.08,2.08,0,0,0-.76.13,1.78,1.78,0,0,0-.58.35,2.34,2.34,0,0,0-.42.54,3.36,3.36,0,0,0-.29.65,5.5,5.5,0,0,0-.18.72,6.61,6.61,0,0,0-.09.72q0,.33,0,.69a1.63,1.63,0,0,0,.49,1.26A1.85,1.85,0,0,0,15,30H21a1.85,1.85,0,0,0,1.31-.46,1.63,1.63,0,0,0,.49-1.26Q22.77,27.93,22.75,27.6ZM18,19.82a2.53,2.53,0,0,0-1.84.75,2.51,2.51,0,0,0,0,3.6,2.64,2.64,0,0,0,3.68,0,2.51,2.51,0,0,0,0-3.6A2.53,2.53,0,0,0,18,19.82Z"/><path class="cls-1" d="M11.75,27.6a6.63,6.63,0,0,0-.09-.72,5.54,5.54,0,0,0-.18-.72,3.37,3.37,0,0,0-.29-.65,2.35,2.35,0,0,0-.42-.54,1.78,1.78,0,0,0-.58-.35,2.08,2.08,0,0,0-.76-.13.83.83,0,0,0-.28.14l-.5.32a3.24,3.24,0,0,1-.73.32,2.94,2.94,0,0,1-1.81,0,3.23,3.23,0,0,1-.73-.32l-.5-.32a.84.84,0,0,0-.28-.14,2.08,2.08,0,0,0-.76.13,1.78,1.78,0,0,0-.58.35,2.34,2.34,0,0,0-.42.54,3.36,3.36,0,0,0-.29.65,5.5,5.5,0,0,0-.18.72,6.61,6.61,0,0,0-.09.72q0,.33,0,.69a1.63,1.63,0,0,0,.49,1.26A1.85,1.85,0,0,0,4,30H10a1.85,1.85,0,0,0,1.31-.46,1.63,1.63,0,0,0,.49-1.26Q11.77,27.93,11.75,27.6ZM7,19.82a2.53,2.53,0,0,0-1.84.75,2.51,2.51,0,0,0,0,3.6A2.53,2.53,0,0,0,7,24.91a2.53,2.53,0,0,0,1.84-.75,2.51,2.51,0,0,0,0-3.6A2.53,2.53,0,0,0,7,19.82Z"/></svg>