<svg id="Calque_1" data-name="Calque 1" xmlns="http://www.w3.org/2000/svg" viewBox="0 0 32 32"><defs><style>.cls-1{fill:#0095db;}</style></defs><title>dossier_32x32</title><path class="cls-1" d="M25.05,23.34a1.24,1.24,0,0,1-.91.38H7.86a1.28,1.28,0,0,1-1.29-1.29V9.57A1.28,1.28,0,0,1,7.86,8.29h4.29a1.28,1.28,0,0,1,1.29,1.29v.86a1.28,1.28,0,0,0,1.29,1.29h9.43A1.28,1.28,0,0,1,25.43,13v9.43A1.24,1.24,0,0,1,25.05,23.34Zm1.21-12.46A2.89,2.89,0,0,0,24.14,10h-9V9.57a3,3,0,0,0-3-3H7.86a3,3,0,0,0-3,3V22.43a3,3,0,0,0,3,3H24.14a3,3,0,0,0,3-3V13A2.89,2.89,0,0,0,26.26,10.88Z"/></svg>