<svg id="Calque_1" data-name="Calque 1" xmlns="http://www.w3.org/2000/svg" viewBox="0 0 32 32"><defs><style>.cls-1{fill:#0095db;}</style></defs><title>forum_32x32</title><path class="cls-1" d="M25.39,10.94a5.06,5.06,0,0,1,1.4,3.42,5.06,5.06,0,0,1-1.4,3.41,9.61,9.61,0,0,1-3.78,2.51,13.89,13.89,0,0,1-5.11.93,15.12,15.12,0,0,1-1.74-.11L14,21l-.58.51a13.21,13.21,0,0,1-3.68,2.29,9.62,9.62,0,0,0,.94-2.3L11,20.23l-1.17-.67a8.16,8.16,0,0,1-2.7-2.35,4.89,4.89,0,0,1-1-2.86,5.06,5.06,0,0,1,1.4-3.42,9.62,9.62,0,0,1,3.78-2.51,13.89,13.89,0,0,1,5.11-.93,13.89,13.89,0,0,1,5.11.93A9.62,9.62,0,0,1,25.39,10.94Zm-2.86-4a15.57,15.57,0,0,0-6-1.15,15.56,15.56,0,0,0-6,1.15A10.85,10.85,0,0,0,6.11,10,6.68,6.68,0,0,0,4.5,14.35a6.5,6.5,0,0,0,1.21,3.76A9.83,9.83,0,0,0,9,21.06a8.53,8.53,0,0,1-.35,1q-.2.48-.36.79a5.46,5.46,0,0,1-.44.68q-.27.37-.42.53L7,24.59l-.42.46-.11.12-.09.11-.08.12c0,.07-.06.11-.06.13a.36.36,0,0,1,0,.13.18.18,0,0,0,0,.16h0a.68.68,0,0,0,.21.37.54.54,0,0,0,.36.14h.07a10.15,10.15,0,0,0,1.53-.29,14.64,14.64,0,0,0,6.16-3.24,18.3,18.3,0,0,0,1.94.11,15.57,15.57,0,0,0,6-1.15,10.85,10.85,0,0,0,4.37-3.12,6.57,6.57,0,0,0,0-8.61A10.85,10.85,0,0,0,22.53,6.92Z"/></svg>