<svg id="Calque_1" data-name="Calque 1" xmlns="http://www.w3.org/2000/svg" viewBox="0 0 32 32"><defs><style>.cls-1{fill:#0095db;}</style></defs><title>glossaire_32x32</title><path class="cls-1" d="M20.6,21.14H11a.43.43,0,0,0-.31.12.41.41,0,0,0-.12.31v.86a.41.41,0,0,0,.12.31.43.43,0,0,0,.31.12H20.6a.43.43,0,0,0,.31-.12.41.41,0,0,0,.12-.31v-.86a.41.41,0,0,0-.12-.31A.43.43,0,0,0,20.6,21.14Zm0-3.43H11a.43.43,0,0,0-.31.12.41.41,0,0,0-.12.31V19a.41.41,0,0,0,.12.31.43.43,0,0,0,.31.12H20.6a.43.43,0,0,0,.31-.12A.41.41,0,0,0,21,19v-.86a.41.41,0,0,0-.12-.31A.43.43,0,0,0,20.6,17.71Zm0-3.43H11a.43.43,0,0,0-.31.12.41.41,0,0,0-.12.31v.86a.41.41,0,0,0,.12.31A.43.43,0,0,0,11,16H20.6a.43.43,0,0,0,.31-.12.41.41,0,0,0,.12-.31v-.86a.41.41,0,0,0-.12-.31A.43.43,0,0,0,20.6,14.29Zm5.29-9.91A1.28,1.28,0,0,0,25,4H6.62a1.28,1.28,0,0,0-.93.38,1.23,1.23,0,0,0-.38.91V26.71a1.23,1.23,0,0,0,.38.91,1.28,1.28,0,0,0,.93.38H25a1.28,1.28,0,0,0,.93-.38,1.23,1.23,0,0,0,.38-.91V5.29A1.23,1.23,0,0,0,25.89,4.38Zm-1.36,8.85V26.29H7.06V5.71h9.19v7l2.39-2,2.39,2v-7h3.49Z"/></svg>