<svg id="Calque_1" data-name="Calque 1" xmlns="http://www.w3.org/2000/svg" viewBox="0 0 32 32"><defs><style>.cls-1{fill:#0095db;}</style></defs><title>ticket_32x32</title><path class="cls-1" d="M25.95,19a1.62,1.62,0,0,0,.49-1.19,1.69,1.69,0,0,0-.49-1.2L16.5,7.12a4.1,4.1,0,0,0-1.35-.85,4.09,4.09,0,0,0-1.55-.35H8.1A1.72,1.72,0,0,0,6.41,7.61v5.5a4.08,4.08,0,0,0,.35,1.55A3.93,3.93,0,0,0,7.61,16l9.45,9.46a1.62,1.62,0,0,0,1.19.49,1.69,1.69,0,0,0,1.2-.49ZM10.64,11.84A1.69,1.69,0,0,1,9.44,9a1.69,1.69,0,1,1,2.39,2.39A1.63,1.63,0,0,1,10.64,11.84Zm4.13,7.31L11.58,16l.7-.7,3.18,3.18ZM20,20.24l-6.37-6.37.7-.7,6.37,6.37Zm2.09-2.09-6.37-6.37.7-.7,6.37,6.37Z"/></svg>