<svg id="Calque_1" data-name="Calque 1" xmlns="http://www.w3.org/2000/svg" viewBox="0 0 32 32"><defs><style>.cls-1{fill:#0095db;}</style></defs><title>lecon_32x32</title><path class="cls-1" d="M13.11,7h-7a1.68,1.68,0,0,0-1.23.51A1.65,1.65,0,0,0,4.39,8.7v5.18a1.65,1.65,0,0,0,.52,1.21,1.68,1.68,0,0,0,1.23.51h7a1.68,1.68,0,0,0,1.23-.51,1.65,1.65,0,0,0,.52-1.21V8.7a1.65,1.65,0,0,0-.52-1.21A1.69,1.69,0,0,0,13.11,7Zm0,10.36h-7a1.68,1.68,0,0,0-1.23.51,1.65,1.65,0,0,0-.52,1.21v5.18a1.65,1.65,0,0,0,.52,1.21A1.68,1.68,0,0,0,6.14,26h7a1.69,1.69,0,0,0,1.23-.51,1.65,1.65,0,0,0,.52-1.21V19.06a1.65,1.65,0,0,0-.52-1.21A1.69,1.69,0,0,0,13.11,17.33Zm13.81-5.18H16.75a.42.42,0,0,0-.31.13.41.41,0,0,0-.13.3v2.59a.41.41,0,0,0,.13.3.42.42,0,0,0,.31.13H26.92a.42.42,0,0,0,.31-.13.41.41,0,0,0,.13-.3V12.59a.41.41,0,0,0-.13-.3A.42.42,0,0,0,26.92,12.16Zm.31-5A.42.42,0,0,0,26.92,7H16.75a.42.42,0,0,0-.31.13.41.41,0,0,0-.13.3V10a.41.41,0,0,0,.13.3.42.42,0,0,0,.31.13H26.92a.42.42,0,0,0,.31-.13.41.41,0,0,0,.13-.3V7.41A.41.41,0,0,0,27.23,7.11Zm-.31,15.41H16.75a.42.42,0,0,0-.31.13.41.41,0,0,0-.13.3v2.59a.41.41,0,0,0,.13.3.42.42,0,0,0,.31.13H26.92a.42.42,0,0,0,.31-.13.41.41,0,0,0,.13-.3V22.94a.41.41,0,0,0-.13-.3A.42.42,0,0,0,26.92,22.51Zm0-5.18H16.75a.42.42,0,0,0-.31.13.41.41,0,0,0-.13.3v2.59a.41.41,0,0,0,.13.3.42.42,0,0,0,.31.13H26.92a.42.42,0,0,0,.31-.13.41.41,0,0,0,.13-.3V17.77a.41.41,0,0,0-.13-.3A.42.42,0,0,0,26.92,17.33Z"/></svg>