<svg id="Calque_1" data-name="Calque 1" xmlns="http://www.w3.org/2000/svg" viewBox="0 0 32 32"><defs><style>.cls-1{fill:#0095db;}</style></defs><title>outil-externe_32x32</title><path class="cls-1" d="M23.24,18.19a.42.42,0,0,0-.31-.12h-.86a.41.41,0,0,0-.43.43v4.29a2.15,2.15,0,0,1-2.14,2.14H8.36a2.15,2.15,0,0,1-2.14-2.14V11.64A2.15,2.15,0,0,1,8.36,9.5h9.43a.41.41,0,0,0,.43-.43V8.21a.41.41,0,0,0-.43-.43H8.36A3.71,3.71,0,0,0,5.63,8.92,3.71,3.71,0,0,0,4.5,11.64V22.78a3.71,3.71,0,0,0,1.13,2.73,3.71,3.71,0,0,0,2.73,1.13H19.5a3.86,3.86,0,0,0,3.86-3.86V18.5A.42.42,0,0,0,23.24,18.19Zm5-11.87a.82.82,0,0,0-.6-.25H20.79a.85.85,0,0,0-.6,1.46l2.36,2.36-8.73,8.73a.42.42,0,0,0,0,.62l1.53,1.53a.42.42,0,0,0,.62,0L24.68,12,27,14.39a.86.86,0,0,0,1.46-.6V6.93A.82.82,0,0,0,28.25,6.32Z"/></svg>