<svg id="Calque_1" data-name="Calque 1" xmlns="http://www.w3.org/2000/svg" viewBox="0 0 32 32"><defs><style>.cls-1{fill:#0095db;}</style></defs><title>activite-orale_32x32</title><path class="cls-1" d="M5.79,23.59a7.37,7.37,0,0,0-2.06-3.72C-.72,15.33-.87,8.53,4.35,5.47c4.47-2.62,12,.73,9,9.07l-2.14-.77C13.4,7.61,8.3,5.8,5.5,7.44c-4,2.35-3.43,7.48-.14,10.83a9,9,0,0,1,2.59,4.57c1.3,4.23,6,1.8,3.53-1.53l2-1.12C17.42,26.3,8.37,31,5.79,23.59Zm3.1-9a4.19,4.19,0,0,0,1.28-3.69A2.62,2.62,0,0,0,8.61,9a2.81,2.81,0,0,0-2.51.11,4.29,4.29,0,0,0-1.95,3.08l1.57.27a2.75,2.75,0,0,1,1.15-2,1.24,1.24,0,0,1,1.13,0,1,1,0,0,1,.62.77,2.69,2.69,0,0,1-.88,2.26,3.28,3.28,0,0,0-.81,3.59c.53,1.23,1.72,2.23,3,1.53C11.35,17.75,11.09,15.11,8.9,14.57Zm11.46,7.71,1.4-8.56,1.43,6.16a.66.66,0,0,0,1.26.1l1.3-3.32L27,19.48a.66.66,0,0,0,1.14.13l1.1-1.5h2.37V16.78H28.87a.66.66,0,0,0-.53.27l-.61.84-1.39-3.24a.66.66,0,0,0-1.22,0L24,17.49,22.32,10A.66.66,0,0,0,21,10l-1.41,8.69-1.44-5.35a.66.66,0,0,0-1.27,0l-1.07,3.48H13V18.1h3.32a.63.63,0,0,0,.56-.42l.53-1.8,1.62,6.45A.66.66,0,0,0,20.36,22.27Z"/></svg>