<?xml version="1.0" encoding="UTF-8" standalone="no"?>
<svg
   xmlns:dc="http://purl.org/dc/elements/1.1/"
   xmlns:cc="http://creativecommons.org/ns#"
   xmlns:rdf="http://www.w3.org/1999/02/22-rdf-syntax-ns#"
   xmlns:svg="http://www.w3.org/2000/svg"
   xmlns="http://www.w3.org/2000/svg"
   xmlns:sodipodi="http://sodipodi.sourceforge.net/DTD/sodipodi-0.dtd"
   xmlns:inkscape="http://www.inkscape.org/namespaces/inkscape"
   aria-hidden="true"
   focusable="false"
   data-prefix="fas"
   data-icon="folder-plus"
   class="svg-inline--fa fa-folder-plus fa-w-16"
   role="img"
   viewBox="0 0 512 512"
   version="1.1"
   id="svg4"
   sodipodi:docname="publication.svg"
   inkscape:version="0.92.3 (2405546, 2018-03-11)"
   inkscape:export-filename="Y:\dev.magistere.fr\git\magistere\theme\magistere\pix\activities\publication.svg.png"
   inkscape:export-xdpi="6"
   inkscape:export-ydpi="6">
  <metadata
     id="metadata10">
    <rdf:RDF>
      <cc:Work
         rdf:about="">
        <dc:format>image/svg+xml</dc:format>
        <dc:type
           rdf:resource="http://purl.org/dc/dcmitype/StillImage" />
        <dc:title />
      </cc:Work>
    </rdf:RDF>
  </metadata>
  <defs
     id="defs8" />
  <sodipodi:namedview
     pagecolor="#ffffff"
     bordercolor="#666666"
     borderopacity="1"
     objecttolerance="10"
     gridtolerance="10"
     guidetolerance="10"
     inkscape:pageopacity="0"
     inkscape:pageshadow="2"
     inkscape:window-width="1070"
     inkscape:window-height="480"
     id="namedview6"
     showgrid="false"
     inkscape:zoom="0.4609375"
     inkscape:cx="93.288136"
     inkscape:cy="256"
     inkscape:window-x="525"
     inkscape:window-y="354"
     inkscape:window-maximized="0"
     inkscape:current-layer="svg4" />
  <path
     d="M 402.89266,165.60452 H 267.29944 L 222.10169,120.40678 H 109.10734 c -18.721747,0 -33.8983,15.17655 -33.8983,33.8983 v 203.38984 c 0,18.72175 15.176553,33.8983 33.8983,33.8983 h 293.78532 c 18.72175,0 33.8983,-15.17655 33.8983,-33.8983 v -158.1921 c 0,-18.72175 -15.17655,-33.8983 -33.8983,-33.8983 z m -67.79661,118.64407 c 0,6.24294 -5.0565,11.29943 -11.29944,11.29943 h -50.84746 v 50.84746 c 0,6.24294 -5.05649,11.29944 -11.29943,11.29944 h -11.29944 c -6.24294,0 -11.29943,-5.0565 -11.29943,-11.29944 v -50.84746 h -50.84746 c -6.24294,0 -11.29944,-5.05649 -11.29944,-11.29943 v -11.29944 c 0,-6.24294 5.0565,-11.29943 11.29944,-11.29943 h 50.84746 v -50.84746 c 0,-6.24294 5.05649,-11.29944 11.29943,-11.29944 h 11.29944 c 6.24294,0 11.29943,5.0565 11.29943,11.29944 v 50.84746 h 50.84746 c 6.24294,0 11.29944,5.05649 11.29944,11.29943 z"
     id="path2"
     style="opacity:0.95;fill:#0095db;fill-opacity:1;stroke-width:0.70621467"
     inkscape:connector-curvature="0" />
</svg>
