<svg id="Calque_1" data-name="Calque 1" xmlns="http://www.w3.org/2000/svg" viewBox="0 0 32 32"><defs><style>.cls-1{fill:#0095db;}</style></defs><title>test_32x32</title><path class="cls-1" d="M26.16,10.32a3.12,3.12,0,0,0-.64-1L21.34,5.12a3.12,3.12,0,0,0-1-.64,3.09,3.09,0,0,0-1.18-.27h-12A1.28,1.28,0,0,0,5.86,5.5V26.92a1.28,1.28,0,0,0,1.29,1.29h18a1.28,1.28,0,0,0,1.29-1.29V11.5A3.09,3.09,0,0,0,26.16,10.32ZM19.57,6a1.47,1.47,0,0,1,.55.29l4.19,4.19a1.46,1.46,0,0,1,.29.55h-5ZM24.72,26.5H7.57V5.92H17.86V11.5a1.28,1.28,0,0,0,1.29,1.29h5.57Zm-11.4-9.43a.65.65,0,0,0-.91,0L11.5,18a.65.65,0,0,0,0,.91l2.42,2.42.91.91a.65.65,0,0,0,.91,0l.91-.91,4.85-4.85a.65.65,0,0,0,0-.91l-.91-.91a.65.65,0,0,0-.91,0L15.29,19Z"/></svg>