<svg id="Calque_1" data-name="Calque 1" xmlns="http://www.w3.org/2000/svg" viewBox="0 0 32 32"><defs><style>.cls-1{fill:#0095db;}</style></defs><title>fichier_32x32</title><path class="cls-1" d="M21.2,4.91a3.12,3.12,0,0,0-1-.64A3.09,3.09,0,0,0,19,4H7A1.28,1.28,0,0,0,5.71,5.29V26.71A1.28,1.28,0,0,0,7,28H25a1.28,1.28,0,0,0,1.29-1.29V11.29A3.09,3.09,0,0,0,26,10.11a3.12,3.12,0,0,0-.64-1ZM20,6.12l4.19,4.19a1.46,1.46,0,0,1,.29.55h-5v-5a1.47,1.47,0,0,1,.55.29ZM7.43,26.29V5.71H17.71v5.57A1.28,1.28,0,0,0,19,12.57h5.57V26.29Z"/></svg>