<svg id="Calque_1" data-name="Calque 1" xmlns="http://www.w3.org/2000/svg" viewBox="0 0 32 32"><defs><style>.cls-1{fill:#0095db;}</style></defs><title>forum-participatif_32x32</title><path class="cls-1" d="M24.77,17.7a6.52,6.52,0,0,1-.51.68,9.56,9.56,0,0,1-3.76,2.52,13.71,13.71,0,0,1-5.08.93,15,15,0,0,1-1.73-.11l-.76-.08-.57.51a13.13,13.13,0,0,1-3.66,2.3,9.69,9.69,0,0,0,.93-2.31L10,20.85l-1.16-.67a8.14,8.14,0,0,1-2.68-2.36,4.93,4.93,0,0,1-1-2.87,5.1,5.1,0,0,1,1.39-3.43A9.57,9.57,0,0,1,10.34,9a13.72,13.72,0,0,1,5.08-.93,14.68,14.68,0,0,1,2,.15,2.59,2.59,0,0,1,1-.38l2.34-.34.09-.19a15.52,15.52,0,0,0-5.47-1,15.37,15.37,0,0,0-6,1.15,10.8,10.8,0,0,0-4.34,3.13,6.74,6.74,0,0,0-1.6,4.32,6.56,6.56,0,0,0,1.21,3.78,9.81,9.81,0,0,0,3.3,3,8.61,8.61,0,0,1-.35,1q-.2.48-.36.79a5.5,5.5,0,0,1-.43.69q-.27.38-.41.53L6,25.22l-.41.46-.11.12-.09.11L5.28,26c0,.07-.06.11-.06.13a.37.37,0,0,1,0,.13.18.18,0,0,0,0,.16h0a.69.69,0,0,0,.21.37.53.53,0,0,0,.36.14h.07a10,10,0,0,0,1.52-.3,14.53,14.53,0,0,0,6.13-3.25,18,18,0,0,0,1.93.11,15.37,15.37,0,0,0,6-1.15,10.8,10.8,0,0,0,4.34-3.13,8,8,0,0,0,.55-.8,2.59,2.59,0,0,1-.35-.15Zm4.72-7.57q0-.25-.37-.31l-3.34-.49-1.5-3.06Q24.15,6,24,6t-.33.28l-1.5,3.06-3.34.49q-.37.06-.37.31a.51.51,0,0,0,.17.32L21,12.83l-.57,3.36a1.09,1.09,0,0,0,0,.13.4.4,0,0,0,.07.24.24.24,0,0,0,.21.1.56.56,0,0,0,.27-.08L24,15l3,1.59a.54.54,0,0,0,.27.08.23.23,0,0,0,.2-.1.4.4,0,0,0,.07-.24,1,1,0,0,0,0-.13l-.57-3.36,2.42-2.38A.49.49,0,0,0,29.49,10.13Z"/></svg>