<svg id="Calque_1" data-name="Calque 1" xmlns="http://www.w3.org/2000/svg" viewBox="0 0 32 32"><defs><style>.cls-1{fill:#0095db;}</style></defs><title>consult-sondage_32x32</title><path class="cls-1" d="M23.45,17.21a.36.36,0,0,0-.16,0,.42.42,0,0,0-.31.13l-.86.86a.4.4,0,0,0-.12.29v3.4A2.15,2.15,0,0,1,19.86,24H8.72a2.15,2.15,0,0,1-2.14-2.14V10.72A2.15,2.15,0,0,1,8.72,8.58H19.86a2.39,2.39,0,0,1,.6.08l.12,0a.42.42,0,0,0,.31-.13l.66-.66a.42.42,0,0,0,.12-.39.41.41,0,0,0-.24-.31,3.69,3.69,0,0,0-1.57-.33H8.72A3.72,3.72,0,0,0,6,8a3.72,3.72,0,0,0-1.13,2.73V21.86A3.71,3.71,0,0,0,6,24.59a3.71,3.71,0,0,0,2.73,1.13H19.86a3.86,3.86,0,0,0,3.86-3.86V17.6a.39.39,0,0,0-.27-.39Zm3.68-6.92a1,1,0,0,0-.32-.76L25.34,8.05a1.07,1.07,0,0,0-1.53,0l-8.67,8.67L11.63,13.2a1.07,1.07,0,0,0-1.53,0L8.63,14.67a1.07,1.07,0,0,0,0,1.53L14.39,22a1.07,1.07,0,0,0,1.53,0l10.9-10.9A1,1,0,0,0,27.14,10.29Z"/></svg>