<svg id="Calque_1" data-name="Calque 1" xmlns="http://www.w3.org/2000/svg" viewBox="0 0 32 32"><defs><style>.cls-1{fill:#0095db;}</style></defs><title>url_32x32</title><path class="cls-1" d="M7.09,10.84a10.35,10.35,0,0,0,0,10.33,10.24,10.24,0,0,0,3.74,3.74,10.35,10.35,0,0,0,10.33,0,10.24,10.24,0,0,0,3.74-3.74,10.35,10.35,0,0,0,0-10.33,10.24,10.24,0,0,0-3.74-3.74,10.35,10.35,0,0,0-10.33,0A10.24,10.24,0,0,0,7.09,10.84Zm13.15,1.69q.29.08.09.21s-.06,0-.14,0H20a.71.71,0,0,1,.2.07.09.09,0,0,1,0,.13q.21.12.08.27a.48.48,0,0,1-.42.15s0,0,0,.05l-.23.15-.17.07a.46.46,0,0,0-.2.12.27.27,0,0,0,0,.16.72.72,0,0,1,0,.16s0,0-.11,0-.11.1-.25.13a.45.45,0,0,0-.27.14.15.15,0,0,1,0,.21.17.17,0,0,1-.28,0,.19.19,0,0,0-.1.13.25.25,0,0,1-.1.15q.09.15,0,.21l.06,0,.1.07.07,0q-.05.12-.15.12.08.21-.2.47a.6.6,0,0,1-.17.11l-.21.09-.11,0a.91.91,0,0,0-.2.25.29.29,0,0,0,0,.25.3.3,0,0,0,.25.16v.46q0,.09,0,.17a1.32,1.32,0,0,1,0,.19q0,.11-.06.13a.25.25,0,0,1-.15,0q-.11-.05-.25-.59A.9.9,0,0,0,17,16.7a.4.4,0,0,1-.11.09s-.05,0-.07,0l-.07-.06-.09-.07a.72.72,0,0,0-.23-.07.43.43,0,0,1-.21-.07q-.32.24-.39-.12a.28.28,0,0,0,0,.18l0,.13q-.09.17-.29,0t-.37,0a.77.77,0,0,1-.38,0l.05,0,.05,0a.17.17,0,0,1,0,.08.06.06,0,0,1-.05,0h-.06l-.06,0a.83.83,0,0,0-.13.14.68.68,0,0,1-.12.13.88.88,0,0,1,.07.33q0,.11,0,.33a2.48,2.48,0,0,0,0,.35,1.23,1.23,0,0,0,.13.5.85.85,0,0,0,.3.39,1.13,1.13,0,0,0,.64,0,.33.33,0,0,0,.12-.09.45.45,0,0,0,.07-.15l0-.14a.37.37,0,0,1,.35-.27.39.39,0,0,1,.23,0,.12.12,0,0,1,.06.13.66.66,0,0,1-.05.17l-.1.19a.74.74,0,0,0-.07.16,2.27,2.27,0,0,0,0,.3,1.68,1.68,0,0,1,0,.23h.2a.32.32,0,0,1,0-.09l0-.07a.26.26,0,0,0,.21.12.2.2,0,0,0,.21-.11l.16.2a.58.58,0,0,1,.15.27l.05.17a.34.34,0,0,1,0,.17s-.05,0-.13,0a.06.06,0,0,0-.07,0,.19.19,0,0,0,0,.1.82.82,0,0,0,0,.11l.05.11,0,.07a.45.45,0,0,0,.66.24q0,.39-.19.43t-.24-.13q-.13-.16-.09-.27a.2.2,0,0,1-.09.12,1.28,1.28,0,0,0-.24-.2,1.27,1.27,0,0,1-.24-.2l-.07-.11-.12-.19a1.3,1.3,0,0,1-.11-.21q0-.09,0-.1a.92.92,0,0,1-.74-.15,1.31,1.31,0,0,1-.28-.28.44.44,0,0,0-.39-.2l-.18,0-.19,0a.61.61,0,0,1-.21-.05,1.72,1.72,0,0,1-.29-.15l-.25-.14-.17-.09-.21-.11a.66.66,0,0,1-.17-.13.42.42,0,0,1-.11-.18,2.56,2.56,0,0,1-.07-.32,1,1,0,0,0-.11-.35,1.22,1.22,0,0,0-.23-.27.42.42,0,0,0-.27-.13q.11,0,0-.18a1.39,1.39,0,0,0-.19-.26l-.16-.17-.23-.25a1.07,1.07,0,0,1-.16-.25.28.28,0,0,1,0-.23s0,0,0,0l-.1-.05-.11,0-.08,0a1,1,0,0,1,.06.19.76.76,0,0,0,.07.21l.23.39a1.58,1.58,0,0,1,.32.83q-.08,0-.11,0a.48.48,0,0,1,0-.15.89.89,0,0,0,0-.13.5.5,0,0,0-.21-.17.46.46,0,0,1-.21-.19h.07a.46.46,0,0,0-.14-.31q-.15-.19-.13-.27a.65.65,0,0,1-.19-.31,1.18,1.18,0,0,0-.13-.3.57.57,0,0,0-.13-.14l-.2-.13-.16-.1a.52.52,0,0,1-.11-.12q-.44-.54-.27-.58-.17,0-.29-.26a.83.83,0,0,1-.07-.46h0a2,2,0,0,0,0-.31,3.1,3.1,0,0,1,0-.48q0-.21.13-.21-.09,0-.14-.17a.36.36,0,0,1,0-.25s0,0,.12.05l.12.12q.17-.09.13-.24a1.86,1.86,0,0,0-.28-.28A5,5,0,0,0,9.2,12a.19.19,0,0,0,0-.25q-.13.08-.15,0a.51.51,0,0,1,0-.15q0-.11-.07-.12a.35.35,0,0,1-.16-.11,8.45,8.45,0,0,1,3.15-3h.29a.54.54,0,0,1,.2.07,1.08,1.08,0,0,1,.19.15l.15.13a.33.33,0,0,0-.07-.24q0-.08.29-.16a.76.76,0,0,1,.4,0,3.58,3.58,0,0,0-.27-.33L13,8.17q-.11-.09-.56.09l-.13.07-.17.09a.33.33,0,0,1-.16,0,7.59,7.59,0,0,1,1.26-.55l.13.11.15.13s0,0-.05,0a.34.34,0,0,0,0,.27.25.25,0,0,0,.18.11,1,1,0,0,0,.27,0l.21,0h.13q.43,0,.33-.08a.86.86,0,0,1,.09.22.59.59,0,0,0,.12.23s.05-.1,0-.19a.22.22,0,0,1,0-.19.15.15,0,0,1,.08-.05l.15-.06.11,0q.08-.05-.11-.19l-.11,0-.15-.05L14.69,8a.11.11,0,0,1-.07-.11.36.36,0,0,1,.07-.15A.36.36,0,0,1,15,7.67a.67.67,0,0,1,.27.07q.36.2.11.36a1,1,0,0,1,.32.11q.19.09.15.2.11-.2.21-.2s.09.07.13.18a1.06,1.06,0,0,0,.07.18q.11.15.21.07a1.14,1.14,0,0,0,.22-.23q.11-.15.13-.14t0-.11a.43.43,0,0,1,.36-.07.52.52,0,0,1,.11.12q.12.24,0,.23a.29.29,0,0,1,.1.27q0,.16-.21.15a.47.47,0,0,1-.19-.07.61.61,0,0,0-.19-.07.33.33,0,0,0-.19.07,1.66,1.66,0,0,0-.14.23,1,1,0,0,1-.15.23.79.79,0,0,1-.67.15s0,0,0,.08l-.13.18-.09.11a.68.68,0,0,0-.16.31s0,.08,0,.18a.67.67,0,0,1-.05.23q.16,0,.25.16t0,.2a1.58,1.58,0,0,1,.78.05q.48.17.55.35.08-.12.39,0,.12.07.21.4a.86.86,0,0,0,.18.35.22.22,0,0,0,.27.08l0,0,.09,0,.07-.05a.13.13,0,0,0,0-.06.06.06,0,0,0,0-.05.49.49,0,0,1-.14-.22.28.28,0,0,1,0-.25.91.91,0,0,1,.21-.16.49.49,0,0,0,.21-.21.24.24,0,0,0-.13-.29q-.19-.11-.19-.21a.26.26,0,0,1,.09-.16.21.21,0,0,0,.07-.17.65.65,0,0,0,0-.17A.89.89,0,0,1,18,9.79a.2.2,0,0,1,.06-.14.83.83,0,0,1,.44,0,1.49,1.49,0,0,1,.46.13l.17.08.23.11c.07,0,.1.08.11.11h-.07a.32.32,0,0,1,.11.19.14.14,0,0,1-.1.16.43.43,0,0,1,.21,0q.21.08,0,.15l.11,0,.11,0,.07,0,.06,0h.06a.11.11,0,0,1,.08,0l.06-.07.1-.13s.07-.07.09-.07a.1.1,0,0,1,.07,0l.05.07,0,.09,0,.07a.36.36,0,0,0,.13.14.36.36,0,0,1,.13.14l.05.2a.44.44,0,0,0,.11.22.52.52,0,0,0,.2.1.21.21,0,0,0,.12,0,.32.32,0,0,1,.15,0s.06,0,.06.11.08-.09.08-.11a.56.56,0,0,0,.09.28.24.24,0,0,0,.23.09l0,.29a.3.3,0,0,1-.2.1l-.2.06a.93.93,0,0,0-.19.16q-.15.15-.13.17a.65.65,0,0,0-.68-.15,3.38,3.38,0,0,0-.7.16,1,1,0,0,0-.29.2l0,.09-.07.15s0,.07-.06.07a.34.34,0,0,0,.18-.13l.13-.13a.73.73,0,0,1,.58-.16ZM17.46,24.22a.49.49,0,0,1,.09-.29.62.62,0,0,0,.11-.27q-.21-.05-.16-.35a1.1,1.1,0,0,1,.39-.54.62.62,0,0,0,.16-.64,3.75,3.75,0,0,1-.07-.51q0-.33-.05-.47s0,.05.13.07.14.05.15.09a.81.81,0,0,0,.07-.15.67.67,0,0,1,.08-.16.45.45,0,0,1,.11-.1l.11-.07.12-.09.15-.11a.45.45,0,0,1,.16-.06.12.12,0,0,1,.14.06q.07.08,0,.25t0,.23a1,1,0,0,0,0-.17.32.32,0,0,1,.08-.2.31.31,0,0,1,.15-.09.2.2,0,0,1,.13,0l.14.09a.38.38,0,0,0,.15.07,1.66,1.66,0,0,1,.48.29s0,0,0,0l.05,0,.07,0,.07,0h.17a.15.15,0,0,1,.11,0l.1.06.09.07.09.08.15.09.17.11a.36.36,0,0,1,.11.12.26.26,0,0,1,0,.17l.32.11a.48.48,0,0,0,.17,0,.32.32,0,0,1,.17.06,8.29,8.29,0,0,1-4.7,2.53,1.14,1.14,0,0,1,0-.21Z"/></svg>