<svg id="Calque_1" data-name="Calque 1" xmlns="http://www.w3.org/2000/svg" viewBox="0 0 32 32"><defs><style>.cls-1{fill:#0095db;}</style></defs><title>classe-virtuelle_32x32</title><path class="cls-1" d="M28.81,6.44a2.11,2.11,0,0,0-1.53-.62H5.63a2.11,2.11,0,0,0-1.53.62,2,2,0,0,0-.64,1.5v14.4a2,2,0,0,0,.64,1.5,2.11,2.11,0,0,0,1.53.62H13a2.72,2.72,0,0,1-.22,1,9.32,9.32,0,0,1-.43.93,1.44,1.44,0,0,0-.22.58.81.81,0,0,0,.26.6.84.84,0,0,0,.61.25h6.93a.84.84,0,0,0,.61-.25.81.81,0,0,0,.26-.6,1.49,1.49,0,0,0-.22-.58,9.58,9.58,0,0,1-.43-.94,2.74,2.74,0,0,1-.22-1h7.36a2.11,2.11,0,0,0,1.53-.62,2,2,0,0,0,.64-1.5V7.94A2,2,0,0,0,28.81,6.44ZM27.71,19a.4.4,0,0,1-.13.3.42.42,0,0,1-.3.13H5.63a.42.42,0,0,1-.3-.13.4.4,0,0,1-.13-.3v-11a.4.4,0,0,1,.13-.3.42.42,0,0,1,.3-.13H27.28a.42.42,0,0,1,.3.13.4.4,0,0,1,.13.3ZM16.23,14.27a2.53,2.53,0,0,0,1.84-.74,2.5,2.5,0,0,0,0-3.59,2.64,2.64,0,0,0-3.67,0,2.5,2.5,0,0,0,0,3.59A2.53,2.53,0,0,0,16.23,14.27Zm4.64,2a5.51,5.51,0,0,0-.18-.72,3.35,3.35,0,0,0-.29-.65,2.34,2.34,0,0,0-.42-.54,1.77,1.77,0,0,0-.58-.35,2.08,2.08,0,0,0-.75-.13.83.83,0,0,0-.28.14l-.5.32a3.24,3.24,0,0,1-.73.32,2.94,2.94,0,0,1-1.81,0,3.24,3.24,0,0,1-.73-.32l-.5-.32a.84.84,0,0,0-.28-.14,2.07,2.07,0,0,0-.75.13,1.77,1.77,0,0,0-.58.35,2.33,2.33,0,0,0-.42.54,3.37,3.37,0,0,0-.29.65,5.49,5.49,0,0,0-.18.72,6.58,6.58,0,0,0-.09.72q0,.33,0,.69a2.17,2.17,0,0,0,0,.39H21a2.17,2.17,0,0,0,0-.39q0-.35,0-.69A6.62,6.62,0,0,0,20.87,16.23Z"/></svg>