<svg id="Calque_1" data-name="Calque 1" xmlns="http://www.w3.org/2000/svg" viewBox="0 0 32 32"><defs><style>.cls-1{fill:#0095db;}</style></defs><title>classe-virtuelle-deleguee_32x32</title><path class="cls-1" d="M28.86,5.62A2.11,2.11,0,0,0,27.33,5H5.67a2.11,2.11,0,0,0-1.53.62A2,2,0,0,0,3.5,7.11V21.5A2,2,0,0,0,4.14,23a2.11,2.11,0,0,0,1.53.62H13a2.71,2.71,0,0,1-.22,1,9.27,9.27,0,0,1-.43.93,1.44,1.44,0,0,0-.22.58.8.8,0,0,0,.26.6A.84.84,0,0,0,13,27H20a.84.84,0,0,0,.61-.25.81.81,0,0,0,.26-.6,1.49,1.49,0,0,0-.22-.58,9.55,9.55,0,0,1-.43-.94,2.73,2.73,0,0,1-.22-1h7.37A2.11,2.11,0,0,0,28.86,23a2,2,0,0,0,.64-1.49V7.11A2,2,0,0,0,28.86,5.62Zm-1.1,12.5a.4.4,0,0,1-.13.3.42.42,0,0,1-.3.13H5.67a.42.42,0,0,1-.3-.13.4.4,0,0,1-.13-.3v-11a.4.4,0,0,1,.13-.3.42.42,0,0,1,.3-.13H27.33a.42.42,0,0,1,.3.13.4.4,0,0,1,.13.3ZM9,12.55a1.58,1.58,0,0,0,1.15-.46,1.56,1.56,0,0,0,0-2.24,1.65,1.65,0,0,0-2.3,0,1.56,1.56,0,0,0,0,2.24A1.58,1.58,0,0,0,9,12.55Zm2.9,1.22a3.43,3.43,0,0,0-.11-.45,2.09,2.09,0,0,0-.18-.4,1.46,1.46,0,0,0-.26-.33,1.11,1.11,0,0,0-.36-.22,1.3,1.3,0,0,0-.47-.08.52.52,0,0,0-.18.09l-.32.2a2,2,0,0,1-.46.2,1.84,1.84,0,0,1-1.13,0,2,2,0,0,1-.46-.2l-.32-.2a.52.52,0,0,0-.18-.09,1.3,1.3,0,0,0-.47.08,1.11,1.11,0,0,0-.36.22,1.46,1.46,0,0,0-.26.33,2.1,2.1,0,0,0-.18.4,3.42,3.42,0,0,0-.11.45,4.09,4.09,0,0,0-.06.45q0,.21,0,.43a1.35,1.35,0,0,0,0,.24H12a1.35,1.35,0,0,0,0-.24q0-.22,0-.43A4.12,4.12,0,0,0,11.9,13.77Zm4.6-1.22a1.58,1.58,0,0,0,1.15-.46,1.56,1.56,0,0,0,0-2.24,1.65,1.65,0,0,0-2.3,0,1.56,1.56,0,0,0,0,2.24A1.58,1.58,0,0,0,16.5,12.55Zm2.9,1.22a3.41,3.41,0,0,0-.11-.45,2.09,2.09,0,0,0-.18-.4,1.46,1.46,0,0,0-.26-.33,1.11,1.11,0,0,0-.36-.22,1.3,1.3,0,0,0-.47-.08.52.52,0,0,0-.18.09l-.32.2a2,2,0,0,1-.46.2,1.84,1.84,0,0,1-1.13,0,2,2,0,0,1-.46-.2l-.32-.2a.52.52,0,0,0-.18-.09,1.3,1.3,0,0,0-.47.08,1.11,1.11,0,0,0-.36.22,1.46,1.46,0,0,0-.26.33,2.1,2.1,0,0,0-.18.4,3.41,3.41,0,0,0-.11.45,4.09,4.09,0,0,0-.06.45q0,.21,0,.43a1.35,1.35,0,0,0,0,.24h5.91a1.35,1.35,0,0,0,0-.24q0-.22,0-.43A4.15,4.15,0,0,0,19.4,13.77ZM24,12.55a1.58,1.58,0,0,0,1.15-.46,1.56,1.56,0,0,0,0-2.24,1.65,1.65,0,0,0-2.3,0,1.56,1.56,0,0,0,0,2.24A1.58,1.58,0,0,0,24,12.55Zm2.9,1.22a3.44,3.44,0,0,0-.11-.45,2.1,2.1,0,0,0-.18-.4,1.46,1.46,0,0,0-.26-.33,1.11,1.11,0,0,0-.36-.22,1.3,1.3,0,0,0-.47-.08.52.52,0,0,0-.18.09l-.32.2a2,2,0,0,1-.46.2,1.84,1.84,0,0,1-1.13,0,2,2,0,0,1-.46-.2l-.32-.2a.52.52,0,0,0-.18-.09,1.3,1.3,0,0,0-.47.08,1.11,1.11,0,0,0-.36.22,1.46,1.46,0,0,0-.26.33,2.09,2.09,0,0,0-.18.4,3.45,3.45,0,0,0-.11.45,4.11,4.11,0,0,0-.06.45q0,.21,0,.43a1.35,1.35,0,0,0,0,.24H27a1.34,1.34,0,0,0,0-.24q0-.22,0-.43A4.15,4.15,0,0,0,26.91,13.77Z"/></svg>