<svg id="Calque_1" data-name="Calque 1" xmlns="http://www.w3.org/2000/svg" viewBox="0 0 32 32"><defs><style>.cls-1{fill:#0095db;}</style></defs><title>wiki_32x32</title><path class="cls-1" d="M7.8,22.13A.41.41,0,0,0,7.5,22H4.93a.43.43,0,0,0-.43.43V25a.43.43,0,0,0,.43.43H7.5A.43.43,0,0,0,7.93,25V22.43A.41.41,0,0,0,7.8,22.13ZM7.8,17a.41.41,0,0,0-.3-.13H4.93a.43.43,0,0,0-.43.43v2.57a.43.43,0,0,0,.43.43H7.5a.43.43,0,0,0,.43-.43V17.29A.41.41,0,0,0,7.8,17Zm0-5.14a.41.41,0,0,0-.3-.13H4.93a.43.43,0,0,0-.43.43v2.57a.43.43,0,0,0,.43.43H7.5a.43.43,0,0,0,.43-.43V12.14A.41.41,0,0,0,7.8,11.84ZM28.37,22.13a.41.41,0,0,0-.3-.13h-18a.43.43,0,0,0-.43.43V25a.43.43,0,0,0,.43.43h18A.43.43,0,0,0,28.5,25V22.43A.41.41,0,0,0,28.37,22.13ZM7.8,6.7a.41.41,0,0,0-.3-.13H4.93A.43.43,0,0,0,4.5,7V9.57a.43.43,0,0,0,.43.43H7.5a.43.43,0,0,0,.43-.43V7A.41.41,0,0,0,7.8,6.7ZM28.37,17a.41.41,0,0,0-.3-.13h-18a.43.43,0,0,0-.43.43v2.57a.43.43,0,0,0,.43.43h18a.43.43,0,0,0,.43-.43V17.29A.41.41,0,0,0,28.37,17Zm0-5.14a.41.41,0,0,0-.3-.13h-18a.43.43,0,0,0-.43.43v2.57a.43.43,0,0,0,.43.43h18a.43.43,0,0,0,.43-.43V12.14A.41.41,0,0,0,28.37,11.84Zm0-5.14a.41.41,0,0,0-.3-.13h-18A.43.43,0,0,0,9.64,7V9.57a.43.43,0,0,0,.43.43h18a.43.43,0,0,0,.43-.43V7A.41.41,0,0,0,28.37,6.7Z"/></svg>