<svg id="Calque_1" data-name="Calque 1" xmlns="http://www.w3.org/2000/svg" viewBox="0 0 32 32"><defs><style>.cls-1{fill:#fff;}</style></defs><title>achevement-cours_32x32</title><path class="cls-1" d="M6.14,12.68a10.35,10.35,0,0,0,0,8.13,10.36,10.36,0,0,0,5.58,5.58,10.2,10.2,0,0,0,4.07.83,10.41,10.41,0,0,0,4.46-1,10.24,10.24,0,0,0,3.6-2.79.48.48,0,0,0,.09-.31.4.4,0,0,0-.12-.28L22,21a.49.49,0,0,0-.34-.12.43.43,0,0,0-.31.16,6.94,6.94,0,0,1-8.22,2.16,6.92,6.92,0,0,1-3.73-3.73,6.92,6.92,0,0,1,0-5.42,6.92,6.92,0,0,1,3.73-3.73,6.81,6.81,0,0,1,2.71-.55,6.93,6.93,0,0,1,2.57.48,6.78,6.78,0,0,1,2.18,1.39l-1.87,1.88a.78.78,0,0,0-.19.94.82.82,0,0,0,.81.55H25.4a.89.89,0,0,0,.87-.87V8a.82.82,0,0,0-.55-.81.78.78,0,0,0-.94.19L23,9.16A10.59,10.59,0,0,0,19.68,7a10.34,10.34,0,0,0-7.95.08,10.36,10.36,0,0,0-5.58,5.58Zm7.9.14v6.11a.42.42,0,0,0,.44.44h4.37a.42.42,0,0,0,.44-.44v-.87a.42.42,0,0,0-.44-.44H15.79v-4.8a.42.42,0,0,0-.44-.44h-.87a.42.42,0,0,0-.44.44Z"/></svg>