<svg id="Calque_1" data-name="Calque 1" xmlns="http://www.w3.org/2000/svg" viewBox="0 0 32 32"><defs><style>.cls-1{fill:#fff;}</style></defs><title>activite-recente_32x32</title><path class="cls-1" d="M17.74,11.7a.42.42,0,0,0-.31-.12h-.86a.41.41,0,0,0-.43.43v4.71h-3a.41.41,0,0,0-.43.43V18a.41.41,0,0,0,.43.43h4.29a.41.41,0,0,0,.43-.43V12A.42.42,0,0,0,17.74,11.7ZM19.8,23a7.32,7.32,0,0,1-7.31,0,7.26,7.26,0,0,1-2.65-2.65,7.33,7.33,0,0,1,0-7.31,7.26,7.26,0,0,1,2.65-2.65,7.33,7.33,0,0,1,7.31,0,7.27,7.27,0,0,1,2.65,2.65,7.33,7.33,0,0,1,0,7.31A7.26,7.26,0,0,1,19.8,23ZM21.31,7.82A10.35,10.35,0,0,0,11,7.82a10.24,10.24,0,0,0-3.74,3.74,10.35,10.35,0,0,0,0,10.33A10.23,10.23,0,0,0,11,25.63a10.35,10.35,0,0,0,10.33,0,10.24,10.24,0,0,0,3.74-3.74,10.35,10.35,0,0,0,0-10.33A10.24,10.24,0,0,0,21.31,7.82Z"/></svg>