<svg id="Calque_1" data-name="Calque 1" xmlns="http://www.w3.org/2000/svg" viewBox="0 0 32 32"><defs><style>.cls-1{fill:#fff;}</style></defs><title>activites_32x32</title><path class="cls-1" d="M20.8,15h1.77a6.44,6.44,0,0,0-1.9-3.55,6.68,6.68,0,0,0-4.86-2,6.68,6.68,0,0,0-4.86,2,6.44,6.44,0,0,0-2,4.77,6.44,6.44,0,0,0,2,4.77A6.63,6.63,0,0,0,15.15,23V21.27a5,5,0,0,1-3-1.42,5,5,0,0,1,0-7.16A5,5,0,0,1,15.8,11.2a5,5,0,0,1,3.64,1.48A4.85,4.85,0,0,1,20.8,15Zm-5.53,9.63a8.44,8.44,0,0,1-2.8-.65,8.68,8.68,0,0,1-2.74-1.8A8.51,8.51,0,0,1,7.9,19.54,8.18,8.18,0,0,1,7.9,13,8.51,8.51,0,0,1,9.73,10.3a8.68,8.68,0,0,1,2.74-1.8,8.6,8.6,0,0,1,6.67,0,8.68,8.68,0,0,1,2.74,1.8A8.51,8.51,0,0,1,23.71,13a8.07,8.07,0,0,1,.59,2.07,2.87,2.87,0,0,1,1.79.72,9.72,9.72,0,0,0-1.35-4.59,10.32,10.32,0,0,0-8.92-5,10.32,10.32,0,0,0-8.92,5,10,10,0,0,0,0,10.16,10.32,10.32,0,0,0,8.92,5c.27,0,.52,0,.79,0a2.89,2.89,0,0,1-.6-.44A2.8,2.8,0,0,1,15.27,24.67ZM13.38,13.88a3.33,3.33,0,0,0,0,4.77,3.32,3.32,0,0,0,1.77.93V17.87a2.78,2.78,0,0,1,.85-2A2.88,2.88,0,0,1,18,15h1a3.44,3.44,0,0,0-3.21-2.15A3.34,3.34,0,0,0,13.38,13.88Zm14,11-4.55-4.47,2-1.94a.84.84,0,0,0,0-1.21.85.85,0,0,0-.62-.26H18a.85.85,0,0,0-.62.26.82.82,0,0,0-.26.61v6a.82.82,0,0,0,.26.61.87.87,0,0,0,1.23,0l2-1.94L25.17,27a.44.44,0,0,0,.63,0l1.56-1.53a.42.42,0,0,0,0-.62Z"/></svg>