<svg id="Calque_1" data-name="Calque 1" xmlns="http://www.w3.org/2000/svg" viewBox="0 0 32 32"><defs><style>.cls-1{fill:#fff;}</style></defs><title>actualites_32x32</title><path class="cls-1" d="M26.79,8.14a1.74,1.74,0,0,0-1.71-1.71q-6.17,5.14-12,5.14H6.64A2.15,2.15,0,0,0,4.5,13.71v2.57a2.15,2.15,0,0,0,2.14,2.14H8.28A6.94,6.94,0,0,0,8,19.9a10.79,10.79,0,0,0,0,1.32,7.4,7.4,0,0,0,.2,1.35q.18.79.31,1.19T8.87,25q.3.86.4,1.17a3.33,3.33,0,0,0,1.77.74,5,5,0,0,0,2.26-.15,2.3,2.3,0,0,0,1.49-1.11q-.51-.4-.82-.68a5.83,5.83,0,0,1-.64-.67,2.48,2.48,0,0,1-.45-.74,1.81,1.81,0,0,1-.08-.78,2.05,2.05,0,0,1,.31-.88,1.82,1.82,0,0,1-.54-1.24A2.15,2.15,0,0,1,13,19.36a2.33,2.33,0,0,1,1.22-.88q5.29.44,10.87,5.09a1.74,1.74,0,0,0,1.71-1.71V16.71a1.71,1.71,0,0,0,0-3.43Zm-12,8.67V13.19A20.86,20.86,0,0,0,25.07,8.59V21.37A20.92,20.92,0,0,0,14.79,16.8Z"/></svg>