<svg id="Calque_1" data-name="Calque 1" xmlns="http://www.w3.org/2000/svg" viewBox="0 0 32 32"><defs><style>.cls-1{fill:#fff;}</style></defs><title>administration_32x32</title><path class="cls-1" d="M9.15,24.44a.87.87,0,1,1,.6-.25A.82.82,0,0,1,9.15,24.44Zm7.16-8a6.82,6.82,0,0,1-1.53-2.32L5.65,23.22a1.66,1.66,0,0,0-.51,1.22,1.59,1.59,0,0,0,.51,1.21l1.42,1.45a1.72,1.72,0,0,0,1.22.5,1.64,1.64,0,0,0,1.21-.5L18.63,18A6.82,6.82,0,0,1,16.3,16.42ZM27,11.79a.39.39,0,0,0-.31-.13,4.36,4.36,0,0,0-.94.48q-.82.48-1.81,1.08l-1.06.65-2.58-1.43v-3l3.92-2.26a.44.44,0,0,0,0-.75,4.58,4.58,0,0,0-1.44-.62,6.47,6.47,0,0,0-1.63-.22,5.78,5.78,0,0,0-4.24,1.76,5.78,5.78,0,0,0-1.76,4.24,5.78,5.78,0,0,0,1.76,4.24,5.78,5.78,0,0,0,4.24,1.76,6.06,6.06,0,0,0,5.67-4,4.69,4.69,0,0,0,.31-1.42A.5.5,0,0,0,27,11.79Z"/></svg>