<svg id="Calque_1" data-name="Calque 1" xmlns="http://www.w3.org/2000/svg" viewBox="0 0 32 32"><defs><style>.cls-1{fill:#fff;}</style></defs><title>calendrier_32x32</title><path class="cls-1" d="M6.64,23.14h3.86V27H6.64Zm4.71,0h4.29V27H11.35ZM6.64,18h3.86v4.29H6.64Zm4.71,0h4.29v4.29H11.35ZM6.64,13.28h3.86v3.86H6.64Zm9.86,9.86h4.29V27H16.49Zm-5.14-9.86h4.29v3.86H11.35Zm10.29,9.86h3.86V27H21.64ZM16.49,18h4.29v4.29H16.49Zm-4.84-7a.41.41,0,0,1-.3.13h-.86a.43.43,0,0,1-.43-.43V6.85a.43.43,0,0,1,.43-.43h.86a.43.43,0,0,1,.43.43v3.86A.41.41,0,0,1,11.65,11Zm10,7h3.86v4.29H21.64Zm-5.14-4.71h4.29v3.86H16.49Zm5.14,0h3.86v3.86H21.64Zm.3-2.27a.41.41,0,0,1-.3.13h-.86a.43.43,0,0,1-.43-.43V6.85a.43.43,0,0,1,.43-.43h.86a.43.43,0,0,1,.43.43v3.86A.41.41,0,0,1,21.94,11ZM26.7,8.65a1.65,1.65,0,0,0-1.21-.51H23.78V6.85a2.15,2.15,0,0,0-2.14-2.14h-.86a2.15,2.15,0,0,0-2.14,2.14V8.14H13.49V6.85a2.15,2.15,0,0,0-2.14-2.14h-.86A2.15,2.15,0,0,0,8.35,6.85V8.14H6.64A1.74,1.74,0,0,0,4.92,9.85V27a1.74,1.74,0,0,0,1.71,1.71H25.49A1.74,1.74,0,0,0,27.21,27V9.85A1.65,1.65,0,0,0,26.7,8.65Z"/></svg>