<svg id="Calque_1" data-name="Calque 1" xmlns="http://www.w3.org/2000/svg" viewBox="0 0 32 32"><defs><style>.cls-1{fill:#fff;}</style></defs><title>categories-cours_32x32</title><path class="cls-1" d="M25.12,24.13a1.24,1.24,0,0,1-.91.38H7.92a1.28,1.28,0,0,1-1.29-1.29V10.36A1.28,1.28,0,0,1,7.92,9.08h4.29a1.28,1.28,0,0,1,1.29,1.29v.86a1.28,1.28,0,0,0,1.29,1.29h9.43a1.28,1.28,0,0,1,1.29,1.29v9.43A1.24,1.24,0,0,1,25.12,24.13Zm1.21-12.46a2.89,2.89,0,0,0-2.12-.88h-9v-.43a3,3,0,0,0-3-3H7.92a3,3,0,0,0-3,3V23.22a3,3,0,0,0,3,3H24.21a3,3,0,0,0,3-3V13.79A2.89,2.89,0,0,0,26.32,11.67Z"/></svg>