<svg id="Calque_1" data-name="Calque 1" xmlns="http://www.w3.org/2000/svg" viewBox="0 0 32 32"><defs><style>.cls-1{fill:#fff;}</style></defs><title>commentaires_32x32</title><path class="cls-1" d="M18.66,8.13a12.07,12.07,0,0,0-4.73-.92,12.07,12.07,0,0,0-4.73.92,8.51,8.51,0,0,0-3.44,2.5A5.41,5.41,0,0,0,4.5,14.07a5.26,5.26,0,0,0,1,3,7.82,7.82,0,0,0,2.61,2.37q-.13.32-.27.59a3.38,3.38,0,0,1-.33.52l-.3.39q-.11.14-.35.39l-.31.33-.05.06-.06.07-.05.07,0,.07,0,.07a.29.29,0,0,0,0,.08.51.51,0,0,0,0,.09.27.27,0,0,0,0,.09.44.44,0,0,0,.15.28.42.42,0,0,0,.27.11h0a11.25,11.25,0,0,0,1.15-.21,11.26,11.26,0,0,0,3.72-1.71,13.46,13.46,0,0,0,2.36.21A12.06,12.06,0,0,0,18.66,20a8.5,8.5,0,0,0,3.44-2.5,5.33,5.33,0,0,0,0-6.88A8.51,8.51,0,0,0,18.66,8.13Zm8.83,6.29A7.94,7.94,0,0,0,24.76,12a6.89,6.89,0,0,1-.59,5.44,9,9,0,0,1-2.57,2.84A11.86,11.86,0,0,1,18.07,22a14.15,14.15,0,0,1-4.14.6q-.4,0-1.18-.05a11.25,11.25,0,0,0,6.32,1.77,13.45,13.45,0,0,0,2.36-.21,10.7,10.7,0,0,0,4.88,1.93A.4.4,0,0,0,26.6,26a.5.5,0,0,0,.17-.29.28.28,0,0,0,0-.09.54.54,0,0,0,0-.09.29.29,0,0,0,0-.08l0-.07,0-.07-.05-.07-.06-.07-.05-.06-.31-.33q-.24-.25-.35-.39l-.3-.39a3.38,3.38,0,0,1-.33-.52q-.14-.27-.27-.59a7.86,7.86,0,0,0,2.61-2.36,5.23,5.23,0,0,0-.05-6.09Z"/></svg>