<svg id="Calque_1" data-name="Calque 1" xmlns="http://www.w3.org/2000/svg" viewBox="0 0 32 32"><defs><style>.cls-1{fill:#fff;}</style></defs><title>contact_32x32</title><path class="cls-1" d="M26.66,24.23a.41.41,0,0,1-.3.13H6.64a.43.43,0,0,1-.43-.43V13.65a7.83,7.83,0,0,0,.92.88q3.59,2.76,5.71,4.53.68.58,1.11.9a6.17,6.17,0,0,0,1.16.65,3.36,3.36,0,0,0,1.37.33h0a3.36,3.36,0,0,0,1.37-.33A6.19,6.19,0,0,0,19,20q.43-.32,1.11-.9,2.12-1.77,5.71-4.53a7.86,7.86,0,0,0,.92-.88V23.93A.41.41,0,0,1,26.66,24.23Zm-.5-12.62a6.29,6.29,0,0,1-1.35,1.55l-5.37,4.25-.47.4-.62.5-.6.42a3.56,3.56,0,0,1-.68.37,1.59,1.59,0,0,1-.58.12h0a1.58,1.58,0,0,1-.58-.12,3.54,3.54,0,0,1-.68-.37l-.6-.42L14,17.8l-.47-.4L8.18,13.16a4.69,4.69,0,0,1-2-3.8.43.43,0,0,1,.43-.43H26.36a.49.49,0,0,1,.19,0,.25.25,0,0,1,.12.1l.07.12a.37.37,0,0,1,0,.17q0,.11,0,.17v.33A3.34,3.34,0,0,1,26.16,11.62Zm1.71-3.77a2.06,2.06,0,0,0-1.51-.63H6.64A2.15,2.15,0,0,0,4.5,9.36V23.93a2.15,2.15,0,0,0,2.14,2.14H26.36a2.15,2.15,0,0,0,2.14-2.14V9.36A2.06,2.06,0,0,0,27.87,7.85Z"/></svg>