<svg id="Calque_1" data-name="Calque 1" xmlns="http://www.w3.org/2000/svg" viewBox="0 0 32 32"><defs><style>.cls-1{fill:#fff;}</style></defs><title>dernieres-nouvelles_32x32</title><path class="cls-1" d="M16,16.86H10.86V11.71H16ZM9.14,20.29V22h8.57V20.29ZM9.14,10v8.57h8.57V10ZM19.43,20.29V22h6.86V20.29Zm0-3.43v1.71h6.86V16.86Zm0-3.43v1.71h6.86V13.43Zm0-3.43v1.71h6.86V10Zm-14,13.46A.86.86,0,0,1,4,22.86V10H5.71V22.86A.82.82,0,0,1,5.46,23.46Zm22.29,0a.82.82,0,0,1-.6.25H7.28a2.55,2.55,0,0,0,.15-.86V8.29H28V22.86A.82.82,0,0,1,27.75,23.46ZM5.71,6.57V8.29H2.29V22.86A2.48,2.48,0,0,0,3,24.68a2.48,2.48,0,0,0,1.82.75H27.14a2.56,2.56,0,0,0,2.57-2.57V6.57Z"/></svg>