<svg id="Calque_1" data-name="Calque 1" xmlns="http://www.w3.org/2000/svg" viewBox="0 0 32 32"><defs><style>.cls-1{fill:#fff;}</style></defs><title>evenements-a-venir_32x32</title><path class="cls-1" d="M26.7,8.65a1.65,1.65,0,0,0-1.21-.51H23.78V6.85a2.15,2.15,0,0,0-2.14-2.14h-.86a2.15,2.15,0,0,0-2.14,2.14V8.14H13.49V6.85a2.15,2.15,0,0,0-2.14-2.14h-.86A2.15,2.15,0,0,0,8.35,6.85V8.14H6.64A1.74,1.74,0,0,0,4.92,9.85V27a1.74,1.74,0,0,0,1.71,1.71H25.49A1.74,1.74,0,0,0,27.21,27V9.85A1.65,1.65,0,0,0,26.7,8.65ZM20.35,6.85a.41.41,0,0,1,.43-.43h.86a.41.41,0,0,1,.43.43v3.86a.41.41,0,0,1-.43.43h-.86a.41.41,0,0,1-.43-.43Zm-10.29,0a.41.41,0,0,1,.43-.43h.86a.41.41,0,0,1,.43.43v3.86a.41.41,0,0,1-.43.43h-.86a.41.41,0,0,1-.43-.43ZM25.49,27H6.64V13.28H25.49ZM13.92,22.81l.91.91a.65.65,0,0,0,.91,0l.91-.91L21.5,18a.65.65,0,0,0,0-.91l-.91-.91a.65.65,0,0,0-.91,0l-4.39,4.4-2-2a.65.65,0,0,0-.91,0l-.91.91a.65.65,0,0,0,0,.91Z"/></svg>