<svg id="Calque_1" data-name="Calque 1" xmlns="http://www.w3.org/2000/svg" viewBox="0 0 32 32"><defs><style>.cls-1{fill:#fff;}</style></defs><title>fichiers-perso_32x32</title><path class="cls-1" d="M12.68,17.82h5.53a1.27,1.27,0,0,0,1.28-1.27V11h5.11v5.37h1.7v-5.8A1.27,1.27,0,0,0,25,9.34H19.48a3.4,3.4,0,0,0-1.7.53V5.53a1.27,1.27,0,0,0-1.28-1.27H11a3.08,3.08,0,0,0-1.17.26,3.1,3.1,0,0,0-1,.64l-5.43,5.4a3.08,3.08,0,0,0-.64,1,3,3,0,0,0-.27,1.17v8.9A1.27,1.27,0,0,0,3.74,22.9H11v3.81A1.27,1.27,0,0,0,12.25,28h7.59v-1.7H12.68Zm5.11-5.66v4h-4ZM9.27,7.08v4h-4Zm2.61,8.57a3.08,3.08,0,0,0-.64,1A3,3,0,0,0,11,17.82v3.39H4.16V12.73H9.7A1.27,1.27,0,0,0,11,11.46V6h5.11v5.51ZM24,18.85a2.56,2.56,0,1,0,1.81-.75A2.44,2.44,0,0,0,24,18.85Zm6.46,7a6.72,6.72,0,0,0-.09-.72,5.59,5.59,0,0,0-.18-.72,3.4,3.4,0,0,0-.29-.65,2.33,2.33,0,0,0-.41-.54,1.74,1.74,0,0,0-.57-.35,2,2,0,0,0-.74-.13.82.82,0,0,0-.28.14l-.5.32a3.15,3.15,0,0,1-.72.32,2.84,2.84,0,0,1-1.78,0,3.14,3.14,0,0,1-.72-.32l-.5-.32a.82.82,0,0,0-.28-.14,2,2,0,0,0-.74.13,1.74,1.74,0,0,0-.57.35,2.33,2.33,0,0,0-.41.54,3.39,3.39,0,0,0-.29.65,5.58,5.58,0,0,0-.18.72,6.69,6.69,0,0,0-.09.72q0,.33,0,.69a1.65,1.65,0,0,0,.49,1.25,1.8,1.8,0,0,0,1.29.46H28.7A1.8,1.8,0,0,0,30,27.82a1.65,1.65,0,0,0,.49-1.25Q30.48,26.21,30.45,25.88Z"/></svg>