<svg id="Calque_1" data-name="Calque 1" xmlns="http://www.w3.org/2000/svg" viewBox="0 0 32 32"><defs><style>.cls-1{fill:#fff;}</style></defs><title>gestion-ressources_32x32</title><path class="cls-1" d="M28.23,11.89a3.11,3.11,0,0,0-.64-1L22.13,5.41a3.12,3.12,0,0,0-1-.64,3.09,3.09,0,0,0-1.18-.27H14.36a1.28,1.28,0,0,0-1.29,1.29v4.39a3.41,3.41,0,0,0-1.71-.54H5.79A1.28,1.28,0,0,0,4.5,10.93V27.21A1.28,1.28,0,0,0,5.79,28.5H18.64a1.28,1.28,0,0,0,1.29-1.29V23.36h7.29a1.28,1.28,0,0,0,1.29-1.29v-9A3.09,3.09,0,0,0,28.23,11.89ZM21.64,7.35l4,4h-4ZM13.07,12.5l4,4h-4Zm5.14,14.29h-12V11.36h5.14v5.57a1.28,1.28,0,0,0,1.29,1.29h5.57Zm8.57-5.14H19.93V18.21A3.57,3.57,0,0,0,19,16l-4.23-4.23V6.21h5.14v5.57a1.28,1.28,0,0,0,1.29,1.29h5.57ZM9.28,22,7.5,23.76v1.78H17v-3l-3-3-3.55,3.55Zm0-1.19a1.78,1.78,0,1,0-1.26-3,1.78,1.78,0,0,0,1.26,3Z"/></svg>