<svg id="Calque_1" data-name="Calque 1" xmlns="http://www.w3.org/2000/svg" viewBox="0 0 32 32"><defs><style>.cls-1{fill:#fff;}</style></defs><title>gestion-cours_32x32</title><path class="cls-1" d="M21.64,9.85a3.41,3.41,0,0,0-1.71.54V6a1.28,1.28,0,0,0-1.29-1.29H13.07A3.09,3.09,0,0,0,11.89,5a3.12,3.12,0,0,0-1,.64L5.41,11.08a3.11,3.11,0,0,0-.64,1,3.09,3.09,0,0,0-.27,1.18v9a1.28,1.28,0,0,0,1.29,1.29h7.29v3.86a1.28,1.28,0,0,0,1.29,1.29H27.21a1.28,1.28,0,0,0,1.29-1.29V11.14a1.28,1.28,0,0,0-1.29-1.29Zm-1.71,6.86h-4l4-4Zm-8.57-5.14h-4l4-4Zm2,5.68a3.09,3.09,0,0,0-.27,1.18v3.43H6.21V13.28h5.57A1.28,1.28,0,0,0,13.07,12V6.42h5.14V12L14,16.23A3.11,3.11,0,0,0,13.34,17.25ZM14.79,27V18.42h5.57a1.28,1.28,0,0,0,1.29-1.29V11.57h5.14V27Z"/></svg>