<svg id="Calque_1" data-name="Calque 1" xmlns="http://www.w3.org/2000/svg" viewBox="0 0 32 32"><defs><style>.cls-1{fill:#fff;}</style></defs><title>glossaire_32x32</title><path class="cls-1" d="M20.6,21.64H11a.43.43,0,0,0-.31.12.41.41,0,0,0-.12.31v.86a.41.41,0,0,0,.12.31.43.43,0,0,0,.31.12H20.6a.43.43,0,0,0,.31-.12.41.41,0,0,0,.12-.31v-.86a.41.41,0,0,0-.12-.31A.43.43,0,0,0,20.6,21.64Zm0-3.43H11a.43.43,0,0,0-.31.12.41.41,0,0,0-.12.31v.86a.41.41,0,0,0,.12.31.43.43,0,0,0,.31.12H20.6a.43.43,0,0,0,.31-.12A.41.41,0,0,0,21,19.5v-.86a.41.41,0,0,0-.12-.31A.43.43,0,0,0,20.6,18.21Zm0-3.43H11a.43.43,0,0,0-.31.12.41.41,0,0,0-.12.31v.86a.41.41,0,0,0,.12.31.43.43,0,0,0,.31.12H20.6a.43.43,0,0,0,.31-.12.41.41,0,0,0,.12-.31v-.86a.41.41,0,0,0-.12-.31A.43.43,0,0,0,20.6,14.79Zm5.29-9.91A1.28,1.28,0,0,0,25,4.5H6.62a1.28,1.28,0,0,0-.93.38,1.23,1.23,0,0,0-.38.91V27.21a1.23,1.23,0,0,0,.38.91,1.28,1.28,0,0,0,.93.38H25a1.28,1.28,0,0,0,.93-.37,1.23,1.23,0,0,0,.38-.91V5.79A1.23,1.23,0,0,0,25.89,4.88ZM24.53,26.79H7.06V6.21h9.19v7l2.39-2,2.39,2v-7h3.49Z"/></svg>