<svg id="Calque_1" data-name="Calque 1" xmlns="http://www.w3.org/2000/svg" viewBox="0 0 32 32"><defs><style>.cls-1{fill:#fff;}</style></defs><title>inscrire-utilisateurs_32x32</title><path class="cls-1" d="M17.21,11.58a5.14,5.14,0,0,0-5.14-5.14,5.14,5.14,0,0,0-5.14,5.14,5.14,5.14,0,0,0,5.14,5.14,5.14,5.14,0,0,0,5.14-5.14Zm7.71,2.14a.43.43,0,0,0-.43-.43H21.93a.43.43,0,0,0-.43.43v4.71H16.78a.43.43,0,0,0-.43.43v2.57a.43.43,0,0,0,.43.43H21.5v4.71a.43.43,0,0,0,.43.43H24.5a.43.43,0,0,0,.43-.43V21.87h4.71a.43.43,0,0,0,.43-.43V18.87a.43.43,0,0,0-.43-.43H24.93Zm-9.86,5.14a1.74,1.74,0,0,1,1.71-1.71h3a3.71,3.71,0,0,0-2.91-1.29.82.82,0,0,0-.52.23,8.84,8.84,0,0,1-2.07,1.23,6.15,6.15,0,0,1-4.41,0A8.84,8.84,0,0,1,7.8,16.1a.82.82,0,0,0-.52-.23,4,4,0,0,0-1.49.27,3.5,3.5,0,0,0-1.14.72,4.72,4.72,0,0,0-.83,1.08,6.88,6.88,0,0,0-.58,1.31,11.31,11.31,0,0,0-.35,1.45,13.62,13.62,0,0,0-.19,1.46q0,.68,0,1.39a3.33,3.33,0,0,0,1,2.54,3.63,3.63,0,0,0,2.6.92H17.92a3.76,3.76,0,0,0,2.29-.67V23.15H16.78a1.74,1.74,0,0,1-1.71-1.71Z"/></svg>