<svg id="Calque_1" data-name="Calque 1" xmlns="http://www.w3.org/2000/svg" viewBox="0 0 32 32"><defs><style>.cls-1{fill:#fff;}</style></defs><title>messages-perso_32x32</title><path class="cls-1" d="M4.34,23.47a.42.42,0,0,1-.13-.31V12.72a7.89,7.89,0,0,0,.93.9q3.6,2.8,5.72,4.6.68.58,1.11.91a6.19,6.19,0,0,0,1.16.66,3.33,3.33,0,0,0,1.38.33h0a3.34,3.34,0,0,0,1.38-.33,6.21,6.21,0,0,0,1.16-.66q.43-.33,1.11-.91,2.12-1.8,5.72-4.6a7.93,7.93,0,0,0,.93-.9v2.06a4.4,4.4,0,0,1,1.72,0V8.37a2.11,2.11,0,0,0-.63-1.54,2.06,2.06,0,0,0-1.52-.64H4.65a2.06,2.06,0,0,0-1.52.64A2.11,2.11,0,0,0,2.5,8.37v14.8a2.11,2.11,0,0,0,.63,1.54,2.06,2.06,0,0,0,1.52.64H19c0-.27,0-.53,0-.78a9.06,9.06,0,0,1,.12-1H4.65A.41.41,0,0,1,4.34,23.47Zm0-15.41a.41.41,0,0,1,.3-.13H24.41a.49.49,0,0,1,.19,0,.25.25,0,0,1,.12.1l.07.12a.38.38,0,0,1,0,.17q0,.12,0,.18v.33a3.42,3.42,0,0,1-.62,1.79,6.36,6.36,0,0,1-1.35,1.57l-5.38,4.31-.47.4-.62.51-.6.43a3.55,3.55,0,0,1-.68.37,1.57,1.57,0,0,1-.58.12h0a1.57,1.57,0,0,1-.58-.12,3.55,3.55,0,0,1-.68-.37l-.6-.43L12,16.94l-.47-.4L6.19,12.23a4.78,4.78,0,0,1-2-3.86A.42.42,0,0,1,4.34,8.06Zm19.6,9.42a2.63,2.63,0,0,0,0,3.69,2.55,2.55,0,0,0,3.65,0,2.63,2.63,0,0,0,0-3.69,2.55,2.55,0,0,0-3.65,0Zm6.53,7.21a7,7,0,0,0-.09-.74,5.87,5.87,0,0,0-.18-.74,3.53,3.53,0,0,0-.29-.66,2.39,2.39,0,0,0-.42-.55,1.75,1.75,0,0,0-.57-.36,2,2,0,0,0-.75-.14.82.82,0,0,0-.28.15l-.5.33a3.16,3.16,0,0,1-.73.33,2.82,2.82,0,0,1-1.79,0,3.15,3.15,0,0,1-.73-.33l-.5-.33a.82.82,0,0,0-.28-.15,2,2,0,0,0-.75.14A1.75,1.75,0,0,0,22,22a2.39,2.39,0,0,0-.42.55,3.52,3.52,0,0,0-.29.66,5.83,5.83,0,0,0-.18.74,7,7,0,0,0-.09.74q0,.34,0,.7a1.71,1.71,0,0,0,.49,1.29,1.8,1.8,0,0,0,1.3.47H28.7a1.8,1.8,0,0,0,1.3-.47,1.71,1.71,0,0,0,.49-1.29Q30.49,25,30.47,24.7Z"/></svg>