<svg id="Calque_1" data-name="Calque 1" xmlns="http://www.w3.org/2000/svg" viewBox="0 0 32 32"><defs><style>.cls-1{fill:#fff;}</style></defs><title>migration-cours_32x32</title><path class="cls-1" d="M20.13,26.79h-17V6.21H13.34v5.57a1.24,1.24,0,0,0,.37.91,1.22,1.22,0,0,0,.9.38h5.52v.21h1.7v-1.5a3.12,3.12,0,0,0-.27-1.18,3.13,3.13,0,0,0-.64-1L16.79,5.41a3.09,3.09,0,0,0-1-.64,3,3,0,0,0-1.17-.27H2.72a1.22,1.22,0,0,0-.9.38,1.25,1.25,0,0,0-.37.91V27.21a1.25,1.25,0,0,0,.37.91,1.22,1.22,0,0,0,.9.38H20.56a1.22,1.22,0,0,0,.9-.37,1.25,1.25,0,0,0,.37-.91v-6.5h-1.7ZM15,6.32a1.45,1.45,0,0,1,.54.29l4.15,4.19a1.47,1.47,0,0,1,.29.55H15ZM30.33,16.65,25.24,12a.42.42,0,0,0-.46-.07.39.39,0,0,0-.25.39v3H8a.41.41,0,0,0-.31.12.42.42,0,0,0-.12.31v2.57a.42.42,0,0,0,.12.31.41.41,0,0,0,.31.12H24.52v3a.4.4,0,0,0,.25.39.41.41,0,0,0,.46-.08l5.1-4.74a.44.44,0,0,0,.13-.32A.43.43,0,0,0,30.33,16.65Z"/></svg>