<svg id="Calque_1" data-name="Calque 1" xmlns="http://www.w3.org/2000/svg" viewBox="0 0 32 32"><defs><style>.cls-1{fill:#fff;}</style></defs><title>personnes_32x32</title><path class="cls-1" d="M10.44,13.28a6.65,6.65,0,0,1,.07-.88,5.38,5.38,0,0,1-1.78.31,4.69,4.69,0,0,1-1.59-.29,8.82,8.82,0,0,1-1.31-.57,2.55,2.55,0,0,0-.58-.28q-1.66,0-1.66,4.73a1.84,1.84,0,0,0,.75,1.59,3.07,3.07,0,0,0,1.85.54H8a4.62,4.62,0,0,1,3.55-1.71,5.9,5.9,0,0,1-1.08-3.43ZM25.82,23.85a13.69,13.69,0,0,0-.19-1.46,11.39,11.39,0,0,0-.35-1.45,6.89,6.89,0,0,0-.58-1.31,4.72,4.72,0,0,0-.83-1.08,3.5,3.5,0,0,0-1.15-.72,4,4,0,0,0-1.49-.27,1.58,1.58,0,0,0-.58.29l-1,.64a6,6,0,0,1-5,.64,5.86,5.86,0,0,1-1.43-.64l-1-.64a1.58,1.58,0,0,0-.58-.29,4,4,0,0,0-1.49.27A3.49,3.49,0,0,0,9,18.55a4.71,4.71,0,0,0-.83,1.08,6.88,6.88,0,0,0-.58,1.31,11.35,11.35,0,0,0-.35,1.45,13.62,13.62,0,0,0-.19,1.46q0,.68,0,1.39a3.34,3.34,0,0,0,1,2.54,3.61,3.61,0,0,0,2.6.93H22.29a3.61,3.61,0,0,0,2.6-.93,3.34,3.34,0,0,0,1-2.54Q25.86,24.53,25.82,23.85ZM8.72,4.71A3.43,3.43,0,0,0,5.29,8.14a3.43,3.43,0,0,0,3.43,3.43,3.43,3.43,0,0,0,3.43-3.43A3.43,3.43,0,0,0,8.72,4.71Zm7.71,3.43a5.14,5.14,0,0,0-5.14,5.14,5.14,5.14,0,0,0,5.14,5.14,5.14,5.14,0,0,0,5.14-5.14,5.14,5.14,0,0,0-5.14-5.14Zm11.2,3.43a2.55,2.55,0,0,0-.58.28,8.81,8.81,0,0,1-1.31.57,4.7,4.7,0,0,1-1.59.29,5.37,5.37,0,0,1-1.78-.31,6.69,6.69,0,0,1,.07.88,5.9,5.9,0,0,1-1.08,3.43,4.62,4.62,0,0,1,3.55,1.71h1.79a3.07,3.07,0,0,0,1.85-.54,1.84,1.84,0,0,0,.75-1.59q0-4.73-1.66-4.73ZM24.15,4.71a3.43,3.43,0,0,0-3.43,3.43,3.43,3.43,0,0,0,5.85,2.42,3.3,3.3,0,0,0,1-2.42,3.43,3.43,0,0,0-3.43-3.43Z"/></svg>