<svg id="Calque_1" data-name="Calque 1" xmlns="http://www.w3.org/2000/svg" viewBox="0 0 32 32"><defs><style>.cls-1{fill:#fff;}</style></defs><title>portfolio_32x32</title><path class="cls-1" d="M24.5,6.5H8.5a2,2,0,0,0-2,2v16a2,2,0,0,0,2,2h16a2,2,0,0,0,2-2V8.5A2,2,0,0,0,24.5,6.5Zm0,16H8.5V8.5h16Zm-8-7.14a2.57,2.57,0,0,0,2.57-2.57A2.57,2.57,0,0,0,14.68,11a2.57,2.57,0,0,0,0,3.64A2.48,2.48,0,0,0,16.5,15.36ZM13.57,20.5h5.85a1.81,1.81,0,0,0,1.3-.47,1.67,1.67,0,0,0,.49-1.27q0-.35,0-.69a6.83,6.83,0,0,0-.09-.73,5.7,5.7,0,0,0-.18-.73,3.44,3.44,0,0,0-.29-.65,2.36,2.36,0,0,0-.42-.54,1.75,1.75,0,0,0-.57-.36,2,2,0,0,0-.75-.13.82.82,0,0,0-.28.14l-.5.32a3.17,3.17,0,0,1-.72.32,2.85,2.85,0,0,1-1.79,0,3.16,3.16,0,0,1-.72-.32l-.5-.32a.82.82,0,0,0-.28-.14,2,2,0,0,0-.75.13,1.75,1.75,0,0,0-.57.36,2.35,2.35,0,0,0-.42.54,3.44,3.44,0,0,0-.29.65,5.69,5.69,0,0,0-.18.73,6.82,6.82,0,0,0-.09.73q0,.34,0,.69A1.67,1.67,0,0,0,12.27,20,1.81,1.81,0,0,0,13.57,20.5Z"/></svg>