<svg id="Calque_1" data-name="Calque 1" xmlns="http://www.w3.org/2000/svg" viewBox="0 0 32 32"><defs><style>.cls-1{fill:#fff;}</style></defs><title>recent-sur-blog_32x32</title><path class="cls-1" d="M26.5,6.5H6.5a2,2,0,0,0-2,2v16a2,2,0,0,0,2,2h20a2,2,0,0,0,2-2V8.5A2,2,0,0,0,26.5,6.5Zm-13,1a1,1,0,1,1-1,1A1,1,0,0,1,13.5,7.5Zm-3,0a1,1,0,1,1-1,1A1,1,0,0,1,10.5,7.5Zm-3,0a1,1,0,1,1-1,1A1,1,0,0,1,7.5,7.5Zm19,17H6.5v-14h20Zm-9-11h-7v1h7Zm0,3h-7v1h7Zm5,3h-12v1h12ZM19.64,18l1.84-1.34L23.33,18l-.7-2.17,1.84-1.34H22.19l-.7-2.17-.7,2.17H18.5l1.84,1.34Z"/></svg>