<svg id="Calque_1" data-name="Calque 1" xmlns="http://www.w3.org/2000/svg" viewBox="0 0 32 32"><defs><style>.cls-1{fill:#fff;}</style></defs><title>recherche-communautes_32x32</title><path class="cls-1" d="M5.72,11.57a3.3,3.3,0,0,0,2.42-1,3.3,3.3,0,0,0,1-2.42,3.3,3.3,0,0,0-1-2.42,3.3,3.3,0,0,0-2.42-1,3.3,3.3,0,0,0-2.42,1,3.3,3.3,0,0,0-1,2.42,3.3,3.3,0,0,0,1,2.42A3.3,3.3,0,0,0,5.72,11.57Zm2.8,5.14a5.9,5.9,0,0,1-1.08-3.43,6.65,6.65,0,0,1,.07-.88,5.38,5.38,0,0,1-1.78.31,4.7,4.7,0,0,1-1.59-.29,8.79,8.79,0,0,1-1.31-.57,2.56,2.56,0,0,0-.58-.28q-1.66,0-1.66,4.73a1.84,1.84,0,0,0,.75,1.59,3.07,3.07,0,0,0,1.85.54H5A4.62,4.62,0,0,1,8.52,16.71Zm1.28.21a5,5,0,0,0,3.64,1.51,5.14,5.14,0,0,0,5.14-5.14,5.14,5.14,0,0,0-5.14-5.14,5.14,5.14,0,0,0-5.14,5.14A5,5,0,0,0,9.8,16.92ZM22.63,22.4a11.36,11.36,0,0,0-.35-1.45,6.89,6.89,0,0,0-.58-1.31,4.72,4.72,0,0,0-.83-1.08,3.5,3.5,0,0,0-1.15-.72,4,4,0,0,0-1.49-.27,1.58,1.58,0,0,0-.58.29l-1,.64a5.88,5.88,0,0,1-1.43.64,5.82,5.82,0,0,1-3.62,0,5.87,5.87,0,0,1-1.43-.64l-1-.64a1.58,1.58,0,0,0-.58-.29,4,4,0,0,0-1.49.27A3.5,3.5,0,0,0,6,18.55a4.71,4.71,0,0,0-.83,1.08,6.88,6.88,0,0,0-.58,1.31,11.34,11.34,0,0,0-.35,1.45,13.59,13.59,0,0,0-.19,1.46q0,.68,0,1.39a3.34,3.34,0,0,0,1,2.54,3.61,3.61,0,0,0,2.6.93H19.29a3.61,3.61,0,0,0,2.6-.93,3.34,3.34,0,0,0,1-2.54q0-.71,0-1.39A13.67,13.67,0,0,0,22.63,22.4Zm8.77-3.64-2.3-2.3a4.59,4.59,0,0,0,.83-2.67A4.63,4.63,0,0,0,29.56,12,4.62,4.62,0,0,0,27,9.44a4.7,4.7,0,0,0-3.66,0A4.62,4.62,0,0,0,20.87,12a4.7,4.7,0,0,0,0,3.66,4.62,4.62,0,0,0,2.51,2.51,4.63,4.63,0,0,0,1.83.37,4.59,4.59,0,0,0,2.67-.83L30.18,20a.8.8,0,0,0,.6.25.86.86,0,0,0,.61-1.46ZM27.33,15.9a3,3,0,0,1-5.12-2.12,3,3,0,1,1,5.12,2.12Z"/></svg>