<svg id="Calque_1" data-name="Calque 1" xmlns="http://www.w3.org/2000/svg" viewBox="0 0 32 32"><defs><style>.cls-1{fill:#fff;}</style></defs><title>recherche-forum_32x32</title><path class="cls-1" d="M20,20.75l-.38.17a13.66,13.66,0,0,1-5.11.95,14.83,14.83,0,0,1-1.74-.11L12,21.68l-.58.52a13.18,13.18,0,0,1-3.68,2.33,9.9,9.9,0,0,0,.94-2.35L9,20.88,7.87,20.2a8.21,8.21,0,0,1-2.7-2.4,5,5,0,0,1-1-2.91,5.21,5.21,0,0,1,1.4-3.48A9.61,9.61,0,0,1,9.39,8.85,13.66,13.66,0,0,1,14.5,7.9a13.66,13.66,0,0,1,5.11.95h0a6.92,6.92,0,0,1,.82-.45A6.52,6.52,0,0,1,21.87,8a13.35,13.35,0,0,0-1.35-.66,15.32,15.32,0,0,0-6-1.17,15.31,15.31,0,0,0-6,1.17A10.86,10.86,0,0,0,4.11,10.5,6.88,6.88,0,0,0,2.5,14.89a6.71,6.71,0,0,0,1.21,3.83,9.89,9.89,0,0,0,3.31,3,8.83,8.83,0,0,1-.35,1q-.2.49-.36.81a5.57,5.57,0,0,1-.44.7q-.27.38-.42.54L5,25.32l-.42.47-.11.12L4.39,26l-.08.12q-.07.1-.06.13a.38.38,0,0,1,0,.14.18.18,0,0,0,0,.16h0a.7.7,0,0,0,.21.38.53.53,0,0,0,.36.14h.07a9.93,9.93,0,0,0,1.53-.3,14.55,14.55,0,0,0,6.16-3.3,17.93,17.93,0,0,0,1.94.11,15.32,15.32,0,0,0,6-1.17,12.74,12.74,0,0,0,1.8-1,6.51,6.51,0,0,1-1.87-.5C20.29,20.94,20.15,20.84,20,20.75Zm9.26-1L27,17.43a4.73,4.73,0,0,0,.83-2.72,4.91,4.91,0,0,0-1.38-3.4,4.71,4.71,0,0,0-1.51-1,4.62,4.62,0,0,0-3.66,0,4.71,4.71,0,0,0-1.51,1,4.9,4.9,0,0,0,0,6.8,4.71,4.71,0,0,0,1.51,1,4.63,4.63,0,0,0,4.5-.47L28,21a.79.79,0,0,0,.6.26.82.82,0,0,0,.6-.26.88.88,0,0,0,0-1.23Zm-4.06-2.9a3,3,0,0,1-4.24,0,3.09,3.09,0,0,1,0-4.32,3,3,0,0,1,4.24,0,3.09,3.09,0,0,1,0,4.32Z"/></svg>