<svg id="Calque_1" data-name="Calque 1" xmlns="http://www.w3.org/2000/svg" viewBox="0 0 32 32"><defs><style>.cls-1{fill:#fff;}</style></defs><title>reglages_32x32</title><path class="cls-1" d="M12.15,19.14a3.43,3.43,0,0,1-3.43-3.43,3.43,3.43,0,0,1,3.43-3.43,3.43,3.43,0,0,1,3.43,3.43,3.43,3.43,0,0,1-3.43,3.43Zm13.21,4.64a1.7,1.7,0,1,1,.5-1.21A1.65,1.65,0,0,1,25.36,23.78Zm0-13.71a1.71,1.71,0,1,1-2.42-2.42,1.71,1.71,0,0,1,2.92,1.21A1.65,1.65,0,0,1,25.36,10.06Zm-4.73,4.17a.39.39,0,0,0-.23-.14l-2-.31a9.16,9.16,0,0,0-.46-1.1q.2-.29.6-.8l.56-.72a.45.45,0,0,0,.09-.25q0-.36-1.93-2.14A.45.45,0,0,0,17,8.65a.39.39,0,0,0-.27.09L15.11,9.94a5.89,5.89,0,0,0-1-.42l-.31-2a.35.35,0,0,0-.13-.23.41.41,0,0,0-.27-.1H10.9a.39.39,0,0,0-.4.32,15.41,15.41,0,0,0-.31,2.06,6.53,6.53,0,0,0-1,.43L7.62,8.75a.48.48,0,0,0-.28-.09q-.25,0-1.06.79a11.38,11.38,0,0,0-1.1,1.19.39.39,0,0,0-.09.27.51.51,0,0,0,.09.27q.75.9,1.21,1.54a6.59,6.59,0,0,0-.43,1L3.89,14a.31.31,0,0,0-.21.14.44.44,0,0,0-.09.26v2.48a.4.4,0,0,0,.09.26.33.33,0,0,0,.23.13l2,.32a6.84,6.84,0,0,0,.47,1.1q-.21.29-.63.82l-.55.71a.45.45,0,0,0-.09.25q0,.36,1.93,2.14a.44.44,0,0,0,.28.11.36.36,0,0,0,.27-.09l1.58-1.19a5.86,5.86,0,0,0,1,.42l.31,2a.34.34,0,0,0,.13.23.41.41,0,0,0,.27.1H13.4a.39.39,0,0,0,.4-.32,16,16,0,0,0,.31-2.08,6.08,6.08,0,0,0,1-.42l1.54,1.21a.48.48,0,0,0,.28.09q.25,0,1.05-.8a14,14,0,0,0,1.1-1.2.34.34,0,0,0,.09-.25.47.47,0,0,0-.09-.27q-.75-.9-1.21-1.54a6.63,6.63,0,0,0,.43-1l2.08-.32a.31.31,0,0,0,.21-.14.44.44,0,0,0,.09-.26V14.49A.4.4,0,0,0,20.63,14.23Zm6.67,7a3.75,3.75,0,0,0-.4-.7,7.43,7.43,0,0,0,.68-1.85.12.12,0,0,0-.05-.09q-1.61-.94-1.66-.94l-.08,0a12.32,12.32,0,0,0-1.23,1.5l-.4,0-.4,0q-.19-.28-.7-.9t-.62-.62l-.4.21-.79.46-.47.27a.12.12,0,0,0-.05.09,7.43,7.43,0,0,0,.68,1.85,3.74,3.74,0,0,0-.4.7q-2,.2-2,.41V23.5q0,.21,2,.42a3.9,3.9,0,0,0,.4.7,7.43,7.43,0,0,0-.68,1.85.12.12,0,0,0,.05.09q1.63,1,1.66,1t.62-.63q.51-.63.7-.91l.4,0,.4,0q.19.28.7.91t.62.63s.57-.32,1.66-1a.12.12,0,0,0,.05-.09,7.43,7.43,0,0,0-.68-1.85,3.9,3.9,0,0,0,.4-.7q2-.2,2-.42V21.63q0-.21-2-.41Zm0-13.71a3.76,3.76,0,0,0-.4-.7A7.43,7.43,0,0,0,27.58,5a.12.12,0,0,0-.05-.09q-1.61-.94-1.66-.94l-.08,0a12.33,12.33,0,0,0-1.23,1.5l-.4,0-.4,0q-.19-.28-.7-.9t-.62-.62l-.4.21-.79.46-.47.27a.12.12,0,0,0-.05.09A7.43,7.43,0,0,0,21.4,6.8a3.74,3.74,0,0,0-.4.7q-2,.2-2,.42V9.79q0,.21,2,.42a3.91,3.91,0,0,0,.4.7,7.43,7.43,0,0,0-.68,1.85.12.12,0,0,0,.05.09q1.63,1,1.66,1t.62-.63q.51-.63.7-.91l.4,0,.4,0q.19.28.7.91t.62.63s.57-.32,1.66-1a.12.12,0,0,0,.05-.09,7.43,7.43,0,0,0-.68-1.85,3.91,3.91,0,0,0,.4-.7q2-.2,2-.42V7.92q0-.21-2-.42Z"/></svg>