<svg id="Calque_1" data-name="Calque 1" xmlns="http://www.w3.org/2000/svg" viewBox="0 0 32 32"><defs><style>.cls-1{fill:#fff;}</style></defs><title>rss_32x32</title><path class="cls-1" d="M9.35,21.08a2.57,2.57,0,1,0,1.82,4.39,2.57,2.57,0,0,0-1.82-4.39Zm8.35.12a11.84,11.84,0,0,0-2.43-3.47A11.85,11.85,0,0,0,11.8,15.3a12,12,0,0,0-4.1-1.08H7.64a.78.78,0,0,0-.58.23.79.79,0,0,0-.28.63v1.81a.82.82,0,0,0,.22.58.81.81,0,0,0,.56.27A8.33,8.33,0,0,1,12.8,20.2a8.33,8.33,0,0,1,2.47,5.24.84.84,0,0,0,.84.78h1.81a.79.79,0,0,0,.63-.28.81.81,0,0,0,.23-.64A12,12,0,0,0,17.7,21.2ZM24,18.61a18.78,18.78,0,0,0-3.94-5.7A18.78,18.78,0,0,0,14.4,9,18.59,18.59,0,0,0,7.68,7.36h0A.8.8,0,0,0,7,7.6a.79.79,0,0,0-.27.62v1.92a.82.82,0,0,0,.23.58.8.8,0,0,0,.57.26,15.18,15.18,0,0,1,5.47,1.37,15.4,15.4,0,0,1,4.5,3.1,15.4,15.4,0,0,1,3.1,4.5A15,15,0,0,1,22,25.42a.8.8,0,0,0,.26.57.84.84,0,0,0,.6.23h1.92A.79.79,0,0,0,25.4,26a.78.78,0,0,0,.24-.63A18.59,18.59,0,0,0,24,18.61Z"/></svg>