<svg id="Calque_1" data-name="Calque 1" xmlns="http://www.w3.org/2000/svg" viewBox="0 0 32 32"><defs><style>.cls-1{fill:#fff;}</style></defs><title>sommaire_32x32</title><path class="cls-1" d="M26.38,19a1.05,1.05,0,0,0-.77-.32H24.51V16.45A1.48,1.48,0,0,0,23.06,15H17.23V12.81h1.09a1.09,1.09,0,0,0,1.09-1.09V8.07A1.09,1.09,0,0,0,18.32,7H14.68a1.09,1.09,0,0,0-1.09,1.09v3.64a1.09,1.09,0,0,0,1.09,1.09h1.09V15H9.94a1.48,1.48,0,0,0-1.46,1.46v2.19H7.39A1.09,1.09,0,0,0,6.3,19.73v3.64a1.09,1.09,0,0,0,1.09,1.09H11a1.09,1.09,0,0,0,1.09-1.09V19.73A1.09,1.09,0,0,0,11,18.64H9.94V16.45h5.83v2.19H14.68a1.09,1.09,0,0,0-1.09,1.09v3.64a1.09,1.09,0,0,0,1.09,1.09h3.64a1.09,1.09,0,0,0,1.09-1.09V19.73a1.09,1.09,0,0,0-1.09-1.09H17.23V16.45h5.83v2.19H22a1.09,1.09,0,0,0-1.09,1.09v3.64A1.09,1.09,0,0,0,22,24.47h3.64a1.09,1.09,0,0,0,1.09-1.09V19.73A1.06,1.06,0,0,0,26.38,19Z"/></svg>