<svg id="Calque_1" data-name="Calque 1" xmlns="http://www.w3.org/2000/svg" viewBox="0 0 32 32"><defs><style>.cls-1{fill:#fff;}</style></defs><title>tags_32x32</title><path class="cls-1" d="M10.21,12.5A1.71,1.71,0,0,1,9,9.58,1.71,1.71,0,1,1,11.42,12,1.65,1.65,0,0,1,10.21,12.5Zm15.51,4.78L16.14,7.72a4.16,4.16,0,0,0-1.37-.86,4.14,4.14,0,0,0-1.57-.35H7.64A1.74,1.74,0,0,0,5.92,8.22v5.57a4.13,4.13,0,0,0,.35,1.57,4,4,0,0,0,.86,1.35l9.58,9.59a1.64,1.64,0,0,0,1.21.5,1.72,1.72,0,0,0,1.22-.5l6.58-6.59a1.64,1.64,0,0,0,.5-1.21,1.72,1.72,0,0,0-.5-1.22Z"/></svg>