<svg id="Calque_1" data-name="Calque 1" xmlns="http://www.w3.org/2000/svg" viewBox="0 0 32 32"><defs><style>.cls-1{fill:#fff;}</style></defs><title>utilisateur-connecte_32x32</title><path class="cls-1" d="M25.59,22.16a13.67,13.67,0,0,0-.19-1.46A11.38,11.38,0,0,0,25,19.24a6.88,6.88,0,0,0-.58-1.31,4.73,4.73,0,0,0-.83-1.09,3.51,3.51,0,0,0-1.14-.72A4,4,0,0,0,21,15.87a1.63,1.63,0,0,0-.56.29l-1,.64a6.33,6.33,0,0,1-1.45.64,5.7,5.7,0,0,1-3.58,0A6.32,6.32,0,0,1,13,16.8l-1-.64a1.64,1.64,0,0,0-.56-.29,4,4,0,0,0-1.49.27,3.5,3.5,0,0,0-1.15.72,4.72,4.72,0,0,0-.83,1.09,6.87,6.87,0,0,0-.58,1.31A11.31,11.31,0,0,0,7,20.7a13.65,13.65,0,0,0-.19,1.46q0,.68,0,1.39a3.34,3.34,0,0,0,1,2.54,3.61,3.61,0,0,0,2.6.93H22.06a3.61,3.61,0,0,0,2.6-.93,3.34,3.34,0,0,0,1-2.54Q25.64,22.83,25.59,22.16ZM16.21,6.44a5.14,5.14,0,0,0-5.14,5.14,5.14,5.14,0,0,0,5.14,5.14,5.14,5.14,0,0,0,5.14-5.14,5.14,5.14,0,0,0-5.14-5.14Z"/></svg>