<svg id="Calque_1" data-name="Calque 1" xmlns="http://www.w3.org/2000/svg" viewBox="0 0 32 32"><defs><style>.cls-1{fill:#fff;}</style></defs><title>utilisateur-en-ligne_32x32</title><path class="cls-1" d="M5.72,11.57a3.3,3.3,0,0,0,2.42-1,3.3,3.3,0,0,0,1-2.42,3.3,3.3,0,0,0-1-2.42,3.3,3.3,0,0,0-2.42-1,3.3,3.3,0,0,0-2.42,1,3.3,3.3,0,0,0-1,2.42,3.3,3.3,0,0,0,1,2.42A3.3,3.3,0,0,0,5.72,11.57ZM9.8,16.92a5,5,0,0,0,3.64,1.51,5.14,5.14,0,0,0,5.14-5.14,5.14,5.14,0,0,0-5.14-5.14,5.14,5.14,0,0,0-5.14,5.14A5,5,0,0,0,9.8,16.92ZM22.63,22.4a11.35,11.35,0,0,0-.35-1.45,6.89,6.89,0,0,0-.58-1.31,4.72,4.72,0,0,0-.83-1.08,3.5,3.5,0,0,0-1.15-.72,4,4,0,0,0-1.49-.27,1.58,1.58,0,0,0-.58.29l-1,.64a5.88,5.88,0,0,1-1.43.64,5.82,5.82,0,0,1-3.62,0,5.87,5.87,0,0,1-1.43-.64l-1-.64a1.58,1.58,0,0,0-.58-.29,4,4,0,0,0-1.49.27A3.5,3.5,0,0,0,6,18.55a4.71,4.71,0,0,0-.83,1.08,6.88,6.88,0,0,0-.58,1.31,11.33,11.33,0,0,0-.35,1.45,13.58,13.58,0,0,0-.19,1.46q0,.68,0,1.39a3.34,3.34,0,0,0,1,2.54,3.61,3.61,0,0,0,2.6.93H19.29a3.61,3.61,0,0,0,2.6-.93,3.34,3.34,0,0,0,1-2.54q0-.71,0-1.39A13.66,13.66,0,0,0,22.63,22.4ZM8.52,16.71a5.9,5.9,0,0,1-1.08-3.43,6.65,6.65,0,0,1,.07-.88,5.37,5.37,0,0,1-1.78.31,4.7,4.7,0,0,1-1.59-.29,8.82,8.82,0,0,1-1.31-.57,2.55,2.55,0,0,0-.58-.28q-1.66,0-1.66,4.73a1.84,1.84,0,0,0,.75,1.59,3.07,3.07,0,0,0,1.85.54H5A4.62,4.62,0,0,1,8.52,16.71ZM30.5,9l-.91-.91a.65.65,0,0,0-.91,0l-4.39,4.4-2-2a.65.65,0,0,0-.91,0l-.91.91a.65.65,0,0,0,0,.91l2.42,2.42.91.91a.65.65,0,0,0,.91,0l.91-.91L30.5,10a.65.65,0,0,0,0-.91Z"/></svg>